<?xml version="1.0" encoding="UTF-8" standalone="no"?>
<svg width="18px" height="24px" viewBox="0 0 18 24" version="1.1" xmlns="http://www.w3.org/2000/svg" xmlns:xlink="http://www.w3.org/1999/xlink">
    <!-- Generator: Sketch 41 (35326) - http://www.bohemiancoding.com/sketch -->
    <title>Hand Clock</title>
    <desc>Created with Sketch.</desc>
    <defs></defs>
    <g id="Symbols" stroke="none" stroke-width="1" fill="none" fill-rule="evenodd">
        <g id="nav/ReadTime24px/white" transform="translate(-3.000000, 0.000000)" fill="#FFFFFF">
            <g id="Hand-Clock" transform="translate(3.000000, 0.000000)">
                <path d="M15.8888364,12.0658738 C15.8888364,8.45128192 12.7499391,5.52427253 8.88126061,5.52427253 C5.01258213,5.52427253 1.87368485,8.45128192 1.87368485,12.0658738 C1.87368485,15.6801763 5.0127569,18.607475 8.88126061,18.607475 C12.7497643,18.607475 15.8888364,15.6801763 15.8888364,12.0658738 Z M17.3888364,12.0658738 C17.3888364,16.441736 13.5816341,19.9920904 8.88126061,19.9920904 C4.18088708,19.9920904 0.373684848,16.441736 0.373684848,12.0658738 C0.373684848,7.68970897 4.18072696,4.13965714 8.88126061,4.13965714 C13.5817942,4.13965714 17.3888364,7.68970897 17.3888364,12.0658738 Z" id="Stroke-972"></path>
                <path d="M9.63126061,11.781167 L9.63126061,8.44891931 C9.63126061,8.06656833 9.29547417,7.75661162 8.88126061,7.75661162 C8.46704704,7.75661162 8.13126061,8.06656833 8.13126061,8.44891931 L8.13126061,12.0658738 C8.13126061,12.2482678 8.20923671,12.423293 8.34824536,12.552918 L10.1106696,14.1963717 C10.4020723,14.4681036 10.8769399,14.4703287 11.1713161,14.2013415 C11.4656923,13.9323544 11.4681028,13.4940151 11.1767001,13.2222832 L9.63126061,11.781167 Z" id="Stroke-973"></path>
                <path d="M5.69363887,5.94107506 C5.62619174,6.31832313 5.24021005,6.57367231 4.83152465,6.51141342 C4.42283925,6.44915453 4.14621097,6.09286374 4.2136581,5.71561567 L4.99503825,1.34517366 C5.07883285,0.871748462 5.52064695,0.522612245 6.04116364,0.522612245 L11.7211636,0.522612245 C12.241046,0.522612245 12.6821718,0.870816821 12.7675865,1.34412004 L13.5108592,5.50316556 C13.5782788,5.88041782 13.3016246,6.23669142 12.8929346,6.29892492 C12.4842447,6.36115843 12.0982816,6.10578528 12.030862,5.72853302 L11.3479485,1.90722763 L6.41483923,1.90722763 L5.69363887,5.94107506 Z" id="Stroke-974"></path>
                <path d="M6.37651213,22.2243843 L5.6935986,18.4030789 C5.62617897,18.0258267 5.2402159,17.7704535 4.83152596,17.832687 C4.42283602,17.8949205 4.14618177,18.2511941 4.2136014,18.6284464 L4.95687413,22.7874919 C5.0422888,23.2607951 5.48341464,23.6089997 6.00329697,23.6089997 L11.683297,23.6089997 C12.2031793,23.6089997 12.6443051,23.2607951 12.7295265,22.7885685 L13.5108147,18.4159282 C13.5782211,18.0386739 13.3015543,17.6824086 12.8928622,17.6201873 C12.4841701,17.557966 12.098216,17.8133507 12.0308096,18.1906049 L11.3100688,22.2243843 L6.37651213,22.2243843 Z" id="Stroke-975"></path>
            </g>
        </g>
    </g>
</svg>