<?xml version="1.0" encoding="UTF-8" standalone="no"?>
<svg width="64px" height="64px" viewBox="0 0 64 64" version="1.1" xmlns="http://www.w3.org/2000/svg" xmlns:xlink="http://www.w3.org/1999/xlink">
    <!-- Generator: Sketch 41 (35326) - http://www.bohemiancoding.com/sketch -->
    <title>nav/article64px/white</title>
    <desc>Created with Sketch.</desc>
    <defs></defs>
    <g id="Symbols" stroke="none" stroke-width="1" fill="none" fill-rule="evenodd">
        <g id="nav/article64px/white" fill="#FFFFFF">
            <g id="Book-Open-3-Copy" transform="translate(0.000000, 16.000000)">
                <path d="M32.7272727,47.0040511 L32.7272727,3.24439149 C32.7272727,2.84674647 32.4016616,2.52439149 32,2.52439149 C31.5983384,2.52439149 31.2727273,2.84674647 31.2727273,3.24439149 L31.2727273,47.0040511 C31.2727273,47.4016961 31.5983384,47.7240511 32,47.7240511 C32.4016616,47.7240511 32.7272727,47.4016961 32.7272727,47.0040511 Z" id="Stroke-861"></path>
                <path d="M48.124232,0.269020596 C54.6896463,0.269020596 59.0889677,1.03277309 62.6058866,2.58649577 C62.8679868,2.70228778 63.0367861,2.95985627 63.0367861,3.24399932 L63.0367861,47.0036589 C63.0367861,47.5251606 62.4941857,47.8736812 62.0131403,47.6611624 C58.7031516,46.1988585 54.5012896,45.4699874 48.124232,45.4699874 C41.3179206,45.4699874 35.2037641,46.338056 32.208855,47.6611624 C32.0202371,47.744491 31.8047267,47.744491 31.6161087,47.6611624 C28.6211997,46.338056 22.5070431,45.4699874 15.7007317,45.4699874 C9.32367421,45.4699874 5.12181215,46.1988585 1.81182349,47.6611624 C1.33077804,47.8736812 0.788177613,47.5251606 0.788177613,47.0036589 L0.788177613,3.24399932 C0.788177613,2.95985627 0.956976933,2.70228778 1.21907719,2.58649577 C4.73599611,1.03277309 9.13531743,0.269020596 15.7007317,0.269020596 C22.4828378,0.269020596 28.6121852,1.11121314 31.9124819,2.46058335 C35.2127785,1.11121314 41.3421259,0.269020596 48.124232,0.269020596 Z M15.7007317,1.7090206 C9.5985891,1.7090206 5.48765756,2.37729259 2.24272307,3.71739471 L2.24272307,45.9261439 C5.58718578,44.6554045 9.75567046,44.0299874 15.7007317,44.0299874 C22.4846642,44.0299874 28.6131117,44.8713422 31.9124819,46.220247 C35.211852,44.8713422 41.3402995,44.0299874 48.124232,44.0299874 C54.0692933,44.0299874 58.237778,44.6554045 61.5822407,45.9261439 L61.5822407,3.71739471 C58.3373062,2.37729259 54.2263747,1.7090206 48.124232,1.7090206 C41.3220831,1.7090206 35.20882,2.57736196 32.2117963,3.90020403 C32.0114866,3.98869732 31.7958074,3.98177614 31.6131674,3.90020403 C31.4563822,3.83017937 31.3239441,3.70514316 31.2483369,3.53740874 C31.0846545,3.17427956 31.2493116,2.74854132 31.6161087,2.58649577 C31.7121824,2.54405186 31.8109945,2.5020778 31.9124819,2.46058335 C32.0139692,2.5020778 32.1127814,2.54405186 32.208855,2.58649577 C32.5756522,2.74854132 32.7403092,3.17427956 32.5766269,3.53740874 C32.5010197,3.70514316 32.3685816,3.83017937 32.2117963,3.90020403 C32.0291563,3.98177614 31.8134772,3.98869732 31.6161087,3.90150286 C28.6161438,2.57736196 22.5028806,1.7090206 15.7007317,1.7090206 Z" id="Stroke-862"></path>
                <path d="M24.8198412,12.0051064 L8.60809103,12.0051064 C8.2064294,12.0051064 7.88081831,12.3274614 7.88081831,12.7251064 C7.88081831,13.1227514 8.2064294,13.4451064 8.60809103,13.4451064 L24.8198412,13.4451064 C25.2215028,13.4451064 25.5471139,13.1227514 25.5471139,12.7251064 C25.5471139,12.3274614 25.2215028,12.0051064 24.8198412,12.0051064 Z" id="Stroke-863"></path>
                <path d="M24.8198412,21.8093617 L8.60809103,21.8093617 C8.2064294,21.8093617 7.88081831,22.1317167 7.88081831,22.5293617 C7.88081831,22.9270067 8.2064294,23.2493617 8.60809103,23.2493617 L24.8198412,23.2493617 C25.2215028,23.2493617 25.5471139,22.9270067 25.5471139,22.5293617 C25.5471139,22.1317167 25.2215028,21.8093617 24.8198412,21.8093617 Z" id="Stroke-864"></path>
                <path d="M24.8198412,33.5744681 L8.60809103,33.5744681 C8.2064294,33.5744681 7.88081831,33.8968231 7.88081831,34.2944681 C7.88081831,34.6921131 8.2064294,35.0144681 8.60809103,35.0144681 L24.8198412,35.0144681 C25.2215028,35.0144681 25.5471139,34.6921131 25.5471139,34.2944681 C25.5471139,33.8968231 25.2215028,33.5744681 24.8198412,33.5744681 Z" id="Stroke-865"></path>
                <path d="M55.7234899,12.0051064 L39.5117398,12.0051064 C39.1100781,12.0051064 38.784467,12.3274614 38.784467,12.7251064 C38.784467,13.1227514 39.1100781,13.4451064 39.5117398,13.4451064 L55.7234899,13.4451064 C56.1251516,13.4451064 56.4507626,13.1227514 56.4507626,12.7251064 C56.4507626,12.3274614 56.1251516,12.0051064 55.7234899,12.0051064 Z" id="Stroke-866"></path>
                <path d="M55.7234899,21.8093617 L39.5117398,21.8093617 C39.1100781,21.8093617 38.784467,22.1317167 38.784467,22.5293617 C38.784467,22.9270067 39.1100781,23.2493617 39.5117398,23.2493617 L55.7234899,23.2493617 C56.1251516,23.2493617 56.4507626,22.9270067 56.4507626,22.5293617 C56.4507626,22.1317167 56.1251516,21.8093617 55.7234899,21.8093617 Z" id="Stroke-867"></path>
                <path d="M55.7234899,33.5744681 L39.5117398,33.5744681 C39.1100781,33.5744681 38.784467,33.8968231 38.784467,34.2944681 C38.784467,34.6921131 39.1100781,35.0144681 39.5117398,35.0144681 L55.7234899,35.0144681 C56.1251516,35.0144681 56.4507626,34.6921131 56.4507626,34.2944681 C56.4507626,33.8968231 56.1251516,33.5744681 55.7234899,33.5744681 Z" id="Stroke-868"></path>
            </g>
        </g>
    </g>
</svg>