<svg width="11px" height="14px" viewBox="0 0 11 14" version="1.1" xmlns="http://www.w3.org/2000/svg" xmlns:xlink="http://www.w3.org/1999/xlink">
    <g id="Page-1" stroke="none" stroke-width="1" fill="none" fill-rule="evenodd">
        <g id="audio" fill="#FFFFFF">
            <path d="M5.25,9.625 C6.69375,9.625 7.875,8.44375 7.875,7 L7.875,2.625 C7.875,1.18125 6.69375,0 5.25,0 C3.80625,0 2.625,1.18125 2.625,2.625 L2.625,7 C2.625,8.44375 3.80625,9.625 5.25,9.625 Z" id="Shape"></path>
            <path d="M8.75,5.6875 L8.75,7 C8.75,8.925 7.175,10.5 5.25,10.5 C3.325,10.5 1.75,8.925 1.75,7 L1.75,5.6875 L0,5.6875 L0,7 C0,9.58125 1.88125,11.76875 4.375,12.1625 L4.375,14 L6.125,14 L6.125,12.1625 C8.61875,11.725 10.5,9.58125 10.5,7 L10.5,5.6875 L8.75,5.6875 L8.75,5.6875 Z" id="Shape"></path>
        </g>
    </g>
</svg>
