<?xml version="1.0" encoding="UTF-8" standalone="no"?>
<svg width="38px" height="62px" viewBox="0 0 38 62" version="1.1" xmlns="http://www.w3.org/2000/svg" xmlns:xlink="http://www.w3.org/1999/xlink">
    <!-- Generator: Sketch 41 (35326) - http://www.bohemiancoding.com/sketch -->
    <title>Mic Copy</title>
    <desc>Created with Sketch.</desc>
    <defs></defs>
    <g id="Symbols" stroke="none" stroke-width="1" fill="none" fill-rule="evenodd">
        <g id="-nav/podcast64px/white" transform="translate(-13.000000, -1.000000)" fill="#FFFFFF">
            <g id="Mic-Copy" transform="translate(13.000000, 1.000000)">
                <path d="M31.3356276,32.3027322 L31.3356276,14.2237684 C31.3356276,7.36562233 25.8652194,1.81455695 19.1293517,1.81455695 C12.3924232,1.81455695 6.92183448,7.36543811 6.92183448,14.2237684 L6.92183448,32.3027322 C6.92183448,39.1613239 12.3926829,44.7132033 19.1293517,44.7132033 C25.8649597,44.7132033 31.3356276,39.1611396 31.3356276,32.3027322 Z M32.8356276,32.3027322 C32.8356276,39.9664256 26.703891,46.1893938 19.1293517,46.1893938 C11.5537745,46.1893938 5.42183448,39.966631 5.42183448,32.3027322 L5.42183448,14.2237684 C5.42183448,6.56008879 11.5535607,0.338366476 19.1293517,0.338366476 C26.7041048,0.338366476 32.8356276,6.56029412 32.8356276,14.2237684 L32.8356276,32.3027322 Z" id="Stroke-135"></path>
                <path d="M6.17195862,23.3730159 L14.2694759,23.3730159 C14.6836894,23.3730159 15.0194759,23.0425594 15.0194759,22.6349206 C15.0194759,22.2272819 14.6836894,21.8968254 14.2694759,21.8968254 L6.17195862,21.8968254 C5.75774506,21.8968254 5.42195862,22.2272819 5.42195862,22.6349206 C5.42195862,23.0425594 5.75774506,23.3730159 6.17195862,23.3730159 Z" id="Stroke-137"></path>
                <path d="M36.1945103,34.7679309 C36.1945103,44.3499534 28.5487685,52.1087995 19.1282345,52.1087995 C9.70875823,52.1087995 2.0632,44.3497663 2.0632,34.7679309 C2.0632,34.3602922 1.72741356,34.0298357 1.3132,34.0298357 C0.898986438,34.0298357 0.5632,34.3602922 0.5632,34.7679309 C0.5632,45.1550638 8.86983945,53.58499 19.1282345,53.58499 C29.3876706,53.58499 37.6945103,45.1552662 37.6945103,34.7679309 C37.6945103,34.3602922 37.3587239,34.0298357 36.9445103,34.0298357 C36.5302968,34.0298357 36.1945103,34.3602922 36.1945103,34.7679309 Z" id="Stroke-139"></path>
                <polygon id="Stroke-141" points="19.75 61.1216234 19.75 52.8467688 18.25 52.8467688 18.25 61.1216234"></polygon>
                <path d="M6.17195862,29.2777778 L14.2694759,29.2777778 C14.6836894,29.2777778 15.0194759,28.9473213 15.0194759,28.5396825 C15.0194759,28.1320438 14.6836894,27.8015873 14.2694759,27.8015873 L6.17195862,27.8015873 C5.75774506,27.8015873 5.42195862,28.1320438 5.42195862,28.5396825 C5.42195862,28.9473213 5.75774506,29.2777778 6.17195862,29.2777778 Z" id="Stroke-143"></path>
                <path d="M6.17195862,15.5 L14.2694759,15.5 C14.6836894,15.5 15.0194759,15.1695435 15.0194759,14.7619048 C15.0194759,14.354266 14.6836894,14.0238095 14.2694759,14.0238095 L6.17195862,14.0238095 C5.75774506,14.0238095 5.42195862,14.354266 5.42195862,14.7619048 C5.42195862,15.1695435 5.75774506,15.5 6.17195862,15.5 Z" id="Stroke-145"></path>
                <path d="M23.9876138,23.3730159 L32.085131,23.3730159 C32.4993446,23.3730159 32.835131,23.0425594 32.835131,22.6349206 C32.835131,22.2272819 32.4993446,21.8968254 32.085131,21.8968254 L23.9876138,21.8968254 C23.5734002,21.8968254 23.2376138,22.2272819 23.2376138,22.6349206 C23.2376138,23.0425594 23.5734002,23.3730159 23.9876138,23.3730159 Z" id="Stroke-147"></path>
                <path d="M23.9876138,29.2777778 L32.085131,29.2777778 C32.4993446,29.2777778 32.835131,28.9473213 32.835131,28.5396825 C32.835131,28.1320438 32.4993446,27.8015873 32.085131,27.8015873 L23.9876138,27.8015873 C23.5734002,27.8015873 23.2376138,28.1320438 23.2376138,28.5396825 C23.2376138,28.9473213 23.5734002,29.2777778 23.9876138,29.2777778 Z" id="Stroke-149"></path>
                <path d="M23.9876138,15.5 L32.085131,15.5 C32.4993446,15.5 32.835131,15.1695435 32.835131,14.7619048 C32.835131,14.354266 32.4993446,14.0238095 32.085131,14.0238095 L23.9876138,14.0238095 C23.5734002,14.0238095 23.2376138,14.354266 23.2376138,14.7619048 C23.2376138,15.1695435 23.5734002,15.5 23.9876138,15.5 Z" id="Stroke-151"></path>
                <path d="M30.4661241,59.2936508 L7.79108966,59.2936508 C7.37687609,59.2936508 7.04108966,59.6241073 7.04108966,60.031746 C7.04108966,60.4393848 7.37687609,60.7698413 7.79108966,60.7698413 L30.4661241,60.7698413 C30.8803377,60.7698413 31.2161241,60.4393848 31.2161241,60.031746 C31.2161241,59.6241073 30.8803377,59.2936508 30.4661241,59.2936508 Z" id="Stroke-153"></path>
            </g>
        </g>
    </g>
</svg>