<svg width="210" height="110" viewBox="0 0 210 110" xmlns="http://www.w3.org/2000/svg"><title>Group</title><g fill="none" fill-rule="evenodd"><path d="M134.18 66.45l-20.12 1-9-18.45-.2-.5L0 16.8c.23 12.72 11.62 33.36 26.61 35.79L97.8 63.87l-1.6 3.28-70.58-1.8c.93 13 14.75 21.54 24.51 21.12l40.25-1.8.11.14-.66 3.92L50 97.24c5.65 9.74 25.64 14.58 29.81 11.82l10.83-5.83 14.39-7.68 18 9.6-3.44-20.33 14.59-18.37z" fill="#041E42"/><path d="M109.83 47.11l7.31 15 8.75-.43 57.51-9.11c14.54-2.17 26.37-23.05 26.6-35.77L109.83 47.11zM138.13 69.68L126 85l33.85 1.51c8.9.35 23.58-8.1 24.51-21.12l-43.7 1.12-2.53 3.17zM128.06 104.27l.68 4 1.43.77c4.17 2.76 24.17-2.08 29.81-11.82l-34.35-7.32 2.43 14.37z" fill="#BF0D3E"/><path d="M134.64 11.73c-3.085-2.2-6.447-3.983-10-5.3 0 0-2.79-5.08-11-6C101-1.09 94.08 1.56 87.24 9.94c-6.84 8.38-7.42 25-7.42 25l25.67 8.3 18.29-5.67s-1.13-1.37-1.87-5.1c-.74-3.73-1-7.34.55-9.64.844-1.268 1.853-2.418 3-3.42 0 0 2.37.55 3.35.68l3.33.44c.438 1.266.53 2.626.27 3.94-.21.63 1.1.71 2.16-.85s4.78-8.31.06-11.86m-14.38.69c-.88 1.72-2.15 3.14-5.4 2.16-2.82-.85-2.38-5.34-2.38-5.34l8.86 1.73c-.413.433-.77.917-1.06 1.44" fill="#041E42"/></g></svg>