<?xml version="1.0" encoding="UTF-8"?>
<svg width="102px" height="108px" viewBox="0 0 102 108" version="1.1" xmlns="http://www.w3.org/2000/svg" xmlns:xlink="http://www.w3.org/1999/xlink">
    <!-- Generator: Sketch 43.2 (39069) - http://www.bohemiancoding.com/sketch -->
    <title>bunker in the box logo</title>
    <desc>Created with Sketch.</desc>
    <defs></defs>
    <g id="Symbols" stroke="none" stroke-width="1" fill="none" fill-rule="evenodd">
        <g id="RWBlogo/notext" transform="translate(-54.000000, -1.000000)" fill-rule="nonzero" fill="#F5A623">
            <g id="bunker-in-the-box-logo" transform="translate(54.000000, 1.000000)">
                <path d="M7.31990602,25.482061 L5.43086476,25.0779606 L5.55680088,30.5188831 L6.52231083,30.2446721 C6.78163522,30.2193709 7.02004592,30.0870724 7.18340971,29.8778163 C7.3467735,29.6685599 7.42122907,29.4001015 7.38987049,29.1333962 C7.37587748,27.9355273 7.34789166,26.7376584 7.31990602,25.482061 Z M34.1302974,29.9415969 L34.1302974,28.2818991 C34.1358884,28.1857712 34.1358884,28.089384 34.1302974,27.993256 C33.191576,28.0916361 32.2433354,28.0133957 31.3317179,27.7623415 C31.1271673,27.7013417 30.9149382,27.6721562 30.7020375,27.6757485 C30.3529753,27.7197284 30.007078,27.7872226 29.666563,27.8777988 C29.5439542,27.883653 29.429971,27.9445589 29.3546159,28.0444857 C29.2792606,28.1444123 29.2500826,28.2733484 29.274762,28.3973564 C29.2629255,28.5847759 29.2629255,28.772791 29.274762,28.9602104 C29.2805196,29.2681321 29.5092389,29.5226548 29.8064922,29.5519287 C30.1143359,29.5519287 30.4081868,29.6962503 30.7160305,29.753979 C31.3736965,29.8694363 32.0173699,30.0137578 32.675036,30.0859185 C33.1645065,30.1490955 33.6614667,30.0998109 34.1302974,29.9415969 L34.1302974,29.9415969 Z M8.14548684,67.277583 C8.14090396,67.3641114 8.14090396,67.4508333 8.14548684,67.5373618 C8.14548684,70.164014 8.25743014,72.7906663 8.29940879,75.4173185 C8.29433865,75.7794027 8.40226263,76.1335766 8.60725249,76.4275695 C8.82676608,76.7319067 9.02771871,77.0500279 9.20894708,77.3800917 C9.35497981,77.6436882 9.60547833,77.8282324 9.89459915,77.8852172 L21.3128034,81.1468843 L25.6366087,82.3880496 C25.8755643,82.4940895 26.1538559,82.4163529 26.3082677,82.2004316 C26.5405937,81.9260207 26.7882211,81.6658011 27.0498913,81.4210952 C27.2259603,81.2682259 27.3197413,81.0371607 27.3017635,80.8005125 L27.3017635,78.4769355 C27.3017635,75.2826185 27.2691133,72.0883014 27.2038132,68.8939844 L27.2038132,67.3641758 C27.2300252,67.165336 27.1428722,66.9687039 26.9799268,66.8590505 L26.3082677,67.003372 C26.5018079,67.3373421 26.5806742,67.7288006 26.5321541,68.1146479 C26.578797,72.232623 26.62544,76.3457873 26.6720831,80.4541408 C26.7051148,80.8212711 26.5522032,81.1800081 26.2675867,81.403107 C25.9829702,81.6262058 25.606909,81.6821078 25.2727933,81.5509846 L10.4403221,77.3367953 C10.1947124,77.3216306 9.96642386,77.201287 9.81064168,77.0048556 C9.44895854,76.5599931 9.17771554,76.0446499 9.01304649,75.4894794 C9.01304649,74.1039925 8.98506067,72.7185055 8.9290892,71.3330186 L8.9290892,68.2301052 C8.93655515,68.1038984 8.90732096,67.9782662 8.84513173,67.8693013 C8.62711741,67.6536822 8.39319929,67.4558481 8.14548684,67.277583 L8.14548684,67.277583 Z M98.0918314,6.43161579 L98.0918314,6.3161587 L91.0953827,5.13272192 L83.0354738,3.7616672 L74.2619272,2.31845161 C73.769977,2.19540136 73.2566372,2.19540136 72.7646871,2.31845161 C72.1909783,2.50606956 71.5892837,2.62152683 71.0015819,2.7802805 C70.9052098,2.81612421 70.8116486,2.8595484 70.7217241,2.91016991 L71.3793903,3.02562718 L75.7591672,3.77609933 L80.0969653,4.51213917 L84.4767422,5.26261133 L88.8145405,5.99865116 L93.1943174,6.74912332 C94.3512658,6.96192032 95.5355933,6.96192032 96.6925416,6.74912332 C97.1123287,6.74912332 97.6020799,6.59036965 98.0918314,6.43161579 Z M34.4101553,30.8075264 L34.4101553,31.3703804 C34.4101553,35.0938765 34.4428053,38.8173725 34.5081056,42.5408686 C34.4914079,43.2793032 34.9840527,43.9265379 35.683509,44.0851092 C36.1896483,44.2413376 36.7342947,44.1949551 37.2087349,43.9552198 L46.1082176,39.7410305 L95.9789039,16.0722956 C96.8184778,15.6826274 97.6580516,15.3073913 98.4696396,14.8599946 C99.2514716,14.4615994 99.7986715,13.6983464 99.9388938,12.8106286 C100.081526,11.7393586 100.15166,10.6591452 100.148787,9.57782577 L100.148787,8.36552472 C100.002894,8.36150988 99.8618141,8.41952029 99.7586154,8.52595862 C99.6554164,8.63239695 99.5991718,8.77790566 99.6030643,8.92837875 L99.6030643,9.98192612 C99.6062164,10.6519652 99.5735165,11.3216732 99.505114,11.9879957 C99.404539,13.1135838 98.7104541,14.0902791 97.7000302,14.5280551 C90.5636526,17.8618828 83.4552608,21.2534395 76.332876,24.6305638 L42.2881567,40.7368491 L36.8169337,43.3202051 C36.5669448,43.4950506 36.2491065,43.5304913 35.9686623,43.4147923 C35.6882181,43.2990931 35.4817574,43.0473492 35.4176439,42.7429187 C35.370904,42.6372271 35.3379665,42.5256067 35.3196936,42.4109792 C35.2748287,42.080784 35.2468045,41.7483869 35.2357363,41.4151606 C35.2357363,38.0861433 35.2077505,34.7571262 35.1517788,31.4281089 L35.1517788,30.9229836 L34.4101553,30.8075264 Z M34.4101553,105.854734 L33.7524891,30.9229836 L32.4371568,30.9229836 L33.1647875,105.970192 C33.5873794,106.017074 34.014693,105.95765 34.4101553,105.797006 L34.4101553,105.854734 Z M9.55876962,68.3311303 L9.55876962,68.9372808 C9.55876962,70.9289183 9.64272691,72.9061236 9.67071274,74.8977611 C9.64509605,75.4121719 9.788028,75.9205127 10.0765067,76.3409765 C10.2331114,76.5973782 10.4781173,76.7830332 10.7621588,76.8605341 L20.1513929,79.5304829 L25.328765,80.9736985 C25.4523489,81.0379621 25.6001102,81.0273868 25.7139036,80.9461337 C25.8276971,80.8648805 25.8893066,80.7259567 25.8744879,80.5840302 L25.8744879,80.280955 L25.8744879,75.7781225 C25.8744879,73.2091988 25.8744879,70.6402752 25.7905306,68.0713515 C25.7598802,67.6828727 25.5781877,67.3236968 25.2867863,67.0755327 C25.1710274,67.3311098 25.0773777,67.596731 25.0069282,67.8693013 C24.9285686,68.3711131 24.8771829,68.8770113 24.8530065,69.3846777 C24.8179345,70.152069 24.4442149,70.8606847 23.8386498,71.3080155 C23.2330846,71.755346 22.4623041,71.8921717 21.7465832,71.6793904 L11.8675977,68.9950095 L9.55876962,68.3311303 Z M36.2712107,23.995549 L35.9773598,23.8945238 L25.6645945,21.7874293 L11.5737468,18.9009981 C10.7450766,18.7036337 9.88369535,18.7036337 9.05502532,18.9009981 C7.54379225,19.3050984 6.01856654,19.6947667 4.49334064,20.0844349 L3.21998699,20.4163744 C2.92542181,20.4951902 2.70173799,20.7427766 2.64627822,21.0513892 C2.59665137,21.3036195 2.73354577,21.5553091 2.96811493,21.6431075 C3.45411571,21.9451452 3.73512496,22.5025118 3.69574546,23.0863231 C3.69092567,23.1583984 3.69092567,23.2307303 3.69574546,23.3028055 C3.66272886,23.5170994 3.72307054,23.7355004 3.86064844,23.8996553 C3.99822615,24.0638101 4.19902096,24.1569915 4.40938335,24.1543026 L6.22845995,24.5439708 L16.6251828,26.780955 L28.3512307,29.2921499 C28.4302457,29.3018387 28.5100952,29.3018387 28.58911,29.2921499 L28.58911,28.2241704 C28.5685412,27.9692741 28.680336,27.7221933 28.8829609,27.5747236 C29.1068473,27.4159697 29.3587193,27.2716482 29.6385774,27.0984624 C29.6411918,27.0455788 29.6411918,26.9925922 29.6385774,26.9397087 C29.6653441,26.2284797 30.1641606,25.6302528 30.8419666,25.4964931 L32.3951781,25.0635285 L36.2712107,23.995549 Z M8.11750101,25.7562719 L8.11750101,26.2325331 L8.11750101,29.0323711 C8.12826827,29.2053789 8.12826827,29.3789209 8.11750101,29.5519287 C8.04530359,30.2687082 7.52924277,30.8536101 6.84414736,30.9951443 C6.62026113,30.9951443 6.41036753,31.1250337 6.1864813,31.1683301 C5.64395688,31.2788325 5.20060276,31.6810113 5.02507076,32.2218775 C4.75696099,32.9209838 4.71765238,33.6912937 4.91312765,34.4155651 C5.01139694,34.8853382 5.38798137,35.2389614 5.85065177,35.2959266 C7.24994155,35.5845697 8.55128084,35.9165094 9.89459915,36.2195846 L22.4042493,39.1060156 L24.0134325,39.4668195 C24.1815966,39.5475259 24.3783833,39.5320217 24.5327106,39.425907 C24.6870381,39.3197923 24.7766013,39.1384043 24.769049,38.9472619 C24.7799077,38.8320762 24.7799077,38.7160759 24.769049,38.6008903 L24.769049,37.8504181 C24.7715982,37.2017854 24.9615992,36.5686662 25.3147719,36.0319665 C25.5929222,35.5675149 26.0339555,35.2315255 26.546147,35.0938765 C26.812012,35.0217157 27.0918699,34.9206905 27.357735,34.862962 C27.6419748,34.8068974 27.8702014,34.5883199 27.9454367,34.300108 C28.0193453,34.0815711 28.0617756,33.8530349 28.0713729,33.6217967 L28.0713729,31.8755059 L28.0713729,29.9704612 L8.11750101,25.7562719 Z M5.86464459,36.1185594 L5.86464459,36.6669813 C5.86464459,38.39884 5.96259489,40.1451308 5.99058071,41.8769895 C5.99058071,45.0376314 6.11651683,48.2127057 6.1724883,51.3733478 C6.22845995,54.5339897 6.29842442,57.2905315 6.35439607,60.2635555 L6.35439607,61.0573241 C6.33783843,61.1246189 6.34969977,61.1959987 6.38703939,61.2537664 C6.42437901,61.3115339 6.48370046,61.3502803 6.55029666,61.3603993 C6.88769001,61.4405296 7.15900482,61.6984138 7.26393437,62.0387106 C7.67354118,62.8418657 7.90307304,63.7296302 7.93559343,64.6364985 C7.94508396,65.3554236 8.15386966,66.0565297 8.53728802,66.6570002 C8.8545357,67.1811575 9.35587169,67.5586215 9.9365778,67.7105476 C11.4757965,68.1146479 13.0150152,68.5476126 14.5542339,68.966145 L21.914498,70.9577825 C22.1816271,71.0659718 22.4795663,71.0597749 22.7422495,70.940566 C23.0049324,70.8213573 23.2106507,70.5989882 23.3137878,70.3227676 C23.4361097,70.0133652 23.5161678,69.6879371 23.551667,69.3558133 C23.551667,69.0238738 23.551667,68.6919341 23.6216315,68.3599946 C23.6925611,67.6245758 23.9807444,66.9293604 24.4472123,66.3683571 L24.7130774,66.440518 L24.8390135,66.267332 L26.2383033,66.3683571 C26.5420047,66.3933967 26.8372159,66.2574688 27.0219054,66.0075532 C27.2649335,65.6859387 27.4803071,65.343079 27.6655789,64.9828703 C27.9333971,64.3671058 28.0533921,63.6938412 28.0154012,63.0200971 C27.9594296,58.748179 27.9081223,54.4714503 27.8614793,50.189911 C27.8614793,46.4279291 27.8195006,42.6659472 27.7355433,38.9039655 L27.7355433,38.39884 L26.000424,38.9039655 L26.000424,39.0338549 C25.9202842,39.4842465 25.6571019,39.877737 25.2773426,40.114952 C24.8975833,40.3521669 24.4375537,40.4104275 24.0134325,40.2750202 L22.4462281,39.9142163 L8.08951538,36.6236849 L5.86464459,36.1185594 Z M69.3923988,3.44415966 L69.238477,3.44415966 L12.6511999,18.0927974 L12.5392568,18.0927974 L12.5392568,18.0927974 L17.2128844,19.0597518 L26.8539907,21.022525 L35.7814593,22.8409764 C36.2292319,22.9275694 36.6630117,23.0141624 37.1107846,23.1296197 C37.2917299,23.1390575 37.4599659,23.2284244 37.5724913,23.3748782 C37.6850168,23.5213321 37.7309267,23.7106797 37.6984861,23.8945238 L37.6984861,24.644996 L95.0693656,8.36552472 L95.1813088,8.36552472 L95.1813088,8.36552472 C94.3417349,8.26449959 93.5161539,8.20677105 92.7045659,8.06244951 C90.367752,7.67278129 88.0449311,7.26868094 85.7081172,6.86458059 L79.3973204,5.78216895 L72.4008717,4.58430003 L70.0640578,4.15133523 C69.7123187,4.09647371 69.4383279,3.80799442 69.3923988,3.44415966 L69.3923988,3.44415966 Z M27.5256497,66.4693823 C27.6939348,66.709002 27.7867469,66.9961786 27.7915148,67.2920151 C27.7915148,71.8429547 27.8428222,76.3938944 27.9454367,80.944834 C27.9545814,81.2549332 27.8438359,81.5560633 27.637593,81.7818992 C27.2737777,82.1859995 26.8819765,82.5756677 26.5041683,82.9653357 C26.3077728,83.1915014 26.0002746,83.2764526 25.720566,83.1818182 L25.3987294,83.080793 L18.7800889,81.1901807 L9.37686185,78.5057998 C9.1260283,78.4557965 8.90463395,78.3052969 8.76117444,78.0872673 C8.42534491,77.5244133 8.06152955,76.9904235 7.73969284,76.4275695 C7.63785697,76.2421341 7.58029782,76.0343532 7.57177807,75.8214189 C7.57177807,74.7823038 7.57177807,73.7431886 7.48782078,72.7185055 C7.40386331,69.9908282 7.48782078,67.2631508 7.20796272,64.5499057 C7.14052427,63.8104546 6.96600652,63.0856053 6.6902256,62.3995145 C6.52702858,62.0346289 6.18343911,61.7909959 5.79468012,61.7644996 L6.56428948,97.5706771 L32.3671923,105.667116 L32.3671923,105.118694 C32.3671923,102.116806 32.3392065,99.110107 32.283235,96.0985972 L32.1992775,87.9155651 C32.1433059,81.8444383 32.08267,75.7733118 32.0173699,69.7021851 C32.0173699,67.0562899 31.9893841,64.4152054 31.9334125,61.7789318 C31.8774408,55.6789407 31.816805,49.5789497 31.7515049,43.4789587 C31.7515049,39.3802265 31.7141904,35.2814945 31.6395616,31.1827623 L31.6395616,30.7353655 C30.8139808,30.5621797 30.0163856,30.3456973 29.1768117,30.23024 L29.1768117,30.8075264 L29.1768117,33.5640679 C29.1849026,34.2277201 28.9835428,34.8760898 28.603103,35.4113839 C28.3742854,35.7685034 28.025345,36.0255705 27.6236,36.1329916 L26.7280547,36.3927704 C26.2714366,36.5357262 25.9482682,36.9552411 25.9164665,37.4463178 L26.1963246,37.4463178 C26.6755851,37.2677598 27.2003112,37.2677598 27.6795717,37.4463178 C28.0844512,37.4917568 28.3780493,37.8654429 28.3372379,38.2833827 C28.3838808,42.1319576 28.4351882,45.9805324 28.4911597,49.8291071 C28.5471313,54.2645894 28.5937744,58.700072 28.6310886,63.1355543 C28.6656881,63.8371361 28.5461014,64.5377108 28.2812663,65.1849204 C28.0853657,65.5024279 27.8055078,65.9498247 27.5256497,66.4693823 Z M12.3013775,57.5791746 C12.2841256,57.8819886 12.2841256,58.1855862 12.3013775,58.4884002 C12.5002578,59.7174261 12.9799046,60.8799799 13.7006671,61.8799569 C14.348477,62.8813305 15.3549245,63.5768182 16.4992467,63.8138656 C16.8625134,63.8826034 17.2376467,63.8215125 17.5627069,63.6406798 C18.336906,63.1629044 18.8727163,62.3629067 19.0319612,61.4469921 C19.299174,60.3821238 19.299174,59.2646256 19.0319612,58.1997571 C18.7124163,56.6917519 17.90877,55.3391107 16.7511187,54.3608039 C16.4091283,54.0799954 16.0267113,53.8560028 15.6176942,53.6969248 C15.2395829,53.5262347 14.8218979,53.4711328 14.414305,53.5381711 C13.6935218,53.7364733 13.1036487,54.2701487 12.8191146,54.9813865 C12.4309405,55.7863234 12.2525159,56.6815825 12.3013775,57.5791746 Z M19.9694853,59.6141085 C20.0499792,60.8235222 19.7770252,62.0300468 19.1858829,63.0778258 C18.5898269,64.1744961 17.435714,64.8202006 16.2193888,64.7375236 C15.6826518,64.716909 15.1569986,64.5739774 14.6801701,64.3189911 C13.4378284,63.6087439 12.4549549,62.4987126 11.8815905,61.158349 C11.5341946,60.4254241 11.2982181,59.6417275 11.1819456,58.834772 C10.9184823,57.404907 11.1304809,55.9251819 11.7836402,54.6350149 C12.1628059,53.888892 12.795594,53.3133249 13.5607382,53.0186135 C14.0064124,52.8436122 14.485785,52.7793374 14.9600279,52.8309953 C16.2850558,53.0520476 17.4692041,53.8108251 18.2483588,54.9380901 C18.757539,55.6008748 19.1548937,56.3473476 19.4237621,57.14621 C19.7514238,57.9315892 19.9318489,58.773886 19.9554923,59.6285406 L19.9694853,59.6141085 Z M0.953137557,21.8884542 L0.953137557,20.661721 C1.03086514,20.5464421 1.10098799,20.4259022 1.16303115,20.3009173 C1.44170279,19.4988911 2.10383345,18.9033885 2.91214328,18.7278123 C4.21348276,18.4103047 5.51482224,18.049501 6.81616172,17.7175613 C7.79566449,17.4722146 8.76117444,17.2557324 9.74067721,17.03925 C10.0205351,17.03925 10.3003932,17.03925 10.580251,16.9237927 L21.2568317,14.1672512 L45.0447574,7.97585651 L68.5668179,1.89991913 L69.1265337,1.71230099 C69.4483704,1.59684372 69.7562141,1.43809005 70.0780508,1.3370651 C70.3998875,1.23603991 71.0575536,1.09171837 71.5612979,0.947396812 L73.1005166,0.5 L73.6882184,0.5 C73.9960621,0.5 74.3039058,0.658753713 74.6117495,0.716482329 L79.1174625,1.48138664 L83.4552608,2.21742648 L87.8770164,2.96789864 L92.3407506,3.71837061 L96.7625061,4.45441063 L100.190766,5.03169679 C100.913824,5.1437343 101.481428,5.72915629 101.590056,6.47491238 C101.611036,6.56844265 101.639108,6.66012836 101.674013,6.74912332 L101.674013,8.68303207 C101.611389,8.88809935 101.511682,9.07908147 101.380162,9.2458861 C101.135631,9.47567222 101.024362,9.81995863 101.086311,10.1551119 L101.086311,10.5880766 C101.002354,14.3260048 100.904404,18.0639331 100.820446,21.7874293 C100.820446,24.2697599 100.736489,26.7520905 100.69451,29.2344214 C100.69451,32.5971136 100.554581,35.9453736 100.484617,39.3369301 C100.484617,41.8048286 100.400659,44.2727273 100.358681,46.7406258 C100.358681,50.0311573 100.218752,53.3361208 100.148787,56.6266523 C100.148787,59.108983 100.06483,61.5913138 100.022851,64.0736444 C99.9575511,67.431526 99.8875866,70.7990289 99.8129577,74.1761532 C99.8129577,75.6193688 99.8129577,77.0625844 99.7290004,78.5923928 C99.7655903,79.2314835 99.389598,79.8190523 98.8054691,80.0356084 L98.4556468,80.194362 L68.7067469,92.8946587 L35.3196936,107.153628 C34.9093693,107.348079 34.4686696,107.465379 34.0183541,107.5 C33.9532936,107.491842 33.8875143,107.491842 33.8224537,107.5 L33.2907236,107.5 C32.9269082,107.413407 32.5491001,107.341246 32.1852847,107.225789 L8.21545131,99.7066361 C7.52979943,99.4901537 6.81616172,99.2881036 6.14450266,99.0427569 C5.45650235,98.835305 4.98714931,98.1800169 4.99708494,97.4407877 C4.99708494,95.2759644 4.89913464,93.1111411 4.857156,90.9607499 C4.80118435,88.4110691 4.74521288,85.8565776 4.68924123,83.2972754 L4.50733365,75.2008363 C4.451362,72.6511554 4.39539035,70.0966639 4.33941888,67.5373618 L4.17150412,59.4842191 L4.00358935,51.8207445 C3.9476177,49.1074994 3.89164605,46.3942542 3.83567458,43.6810088 C3.83567458,41.8914216 3.83567458,40.0874023 3.72373128,38.2978149 L3.72373128,35.7144591 C3.71681397,35.569848 3.6835862,35.427869 3.62578099,35.2959266 C3.16547114,34.1528112 3.12075157,32.8767276 3.49984505,31.7023199 C3.57454369,31.4641399 3.61692434,31.2164439 3.62578099,30.96628 C3.62578099,29.4220393 3.62578099,27.8777988 3.52783069,26.3335581 L3.52783069,25.6408146 C3.1895548,25.3415207 2.86724594,25.0235475 2.56232093,24.6882924 C2.25659863,24.2471651 2.09932911,23.7149246 2.1145481,23.1729161 C2.12715245,22.9841869 2.01949729,22.8088689 1.84868304,22.7399515 C1.69434155,22.6445985 1.55707145,22.5225474 1.44288903,22.3791476 C1.23299562,22.3069867 1.09306668,22.0760723 0.939144737,21.9028863 L0.953137557,21.8884542 Z" id="Shape"></path>
            </g>
        </g>
    </g>
</svg>