<?xml version="1.0" encoding="UTF-8" standalone="no"?>
<svg width="24px" height="24px" viewBox="0 0 24 24" version="1.1" xmlns="http://www.w3.org/2000/svg" xmlns:xlink="http://www.w3.org/1999/xlink">
    <!-- Generator: Sketch 43.2 (39069) - http://www.bohemiancoding.com/sketch -->
    <title>nav/Next24px/blue</title>
    <desc>Created with Sketch.</desc>
    <defs></defs>
    <g id="UI-1920px" stroke="none" stroke-width="1" fill="none" fill-rule="evenodd" opacity="0.29930933">
        <g id="Classroom---Lesson-Completed-1part---1920px" transform="translate(-1705.000000, -544.000000)" fill="#041E42">
            <g id="nav/Next24px/normal" transform="translate(1717.000000, 556.000000) rotate(90.000000) translate(-1717.000000, -556.000000) translate(1705.000000, 544.000000)">
                <g id="Window-Download" transform="translate(12.000000, 12.000000) rotate(-90.000000) translate(-12.000000, -12.000000) ">
                    <path d="M22.2393822,12 C22.2393822,6.34519878 17.6551531,1.76061776 12,1.76061776 C9.42644434,1.76061776 7.00454648,2.71214131 5.1349875,4.40364673 C3.00051861,6.33193201 1.76061776,9.06484242 1.76061776,12 C1.76061776,12.571485 1.80682729,13.1348419 1.89830821,13.6848728 C2.71007508,18.5911182 6.97230948,22.2393822 12,22.2393822 C17.6555949,22.2393822 22.2393822,17.6555949 22.2393822,12 Z M24,12 C24,18.6279572 18.6279572,24 12,24 C6.10747547,24 1.11314443,19.7250971 0.161426875,13.9730005 C0.0541342721,13.3279038 0,12.6679335 0,12 C0,8.56176066 1.45443528,5.35598713 3.95425391,3.09764418 C6.14400073,1.11644467 8.98566971,0 12,0 C18.6275457,0 24,5.37286669 24,12 Z" id="Stroke-577" fill-rule="nonzero"></path>
                    <path d="M11.4920216,14.4581979 L11.5488149,14.407564 C11.5289656,14.4232176 11.509993,14.4400988 11.4920216,14.4581979 Z M12.5484375,14.4903657 C12.5271512,14.4690794 12.5049304,14.4492977 12.4819192,14.4310092 L12.5484375,14.4903657 Z M13.7473326,12.4474802 C14.0846182,12.1467739 14.6018129,12.1764273 14.9025192,12.513713 C15.2032255,12.8509986 15.1735721,13.3681933 14.8362864,13.6688996 L12.6150404,15.6474495 C12.2771473,15.9853426 11.7292468,15.9853426 11.4254187,15.6796173 L9.17010769,13.6688996 C8.83282203,13.3681933 8.8031686,12.8509986 9.10387491,12.513713 C9.40458122,12.1764273 9.9217759,12.1467739 10.2590616,12.4474802 L12.0024295,14.0031448 L13.7473326,12.4474802 Z M11.5488149,14.407564 C11.8031038,14.2070262 12.2012869,14.2079727 12.4819192,14.4310092 L12.0024295,14.0031448 L11.5488149,14.407564 Z" id="Stroke-581" fill-rule="nonzero"></path>
                    <path d="M11.1818182,8.01818182 L11.1818182,14.908134 C11.1818182,15.3600033 11.5481307,15.7263158 12,15.7263158 C12.4518693,15.7263158 12.8181818,15.3600033 12.8181818,14.908134 L12.8181818,8.01818182 C12.8181818,7.56631248 12.4518693,7.2 12,7.2 C11.5481307,7.2 11.1818182,7.56631248 11.1818182,8.01818182 Z" id="Stroke-579" fill-rule="nonzero"></path>
                </g>
            </g>
        </g>
    </g>
</svg>