<?xml version="1.0" encoding="UTF-8" standalone="no"?>
<svg width="14px" height="12px" viewBox="0 0 14 12" version="1.1" xmlns="http://www.w3.org/2000/svg" xmlns:xlink="http://www.w3.org/1999/xlink">
    <!-- Generator: Sketch 41 (35326) - http://www.bohemiancoding.com/sketch -->
    <title>Bold Text Copy</title>
    <desc>Created with Sketch.</desc>
    <defs></defs>
    <g id="Page-1" stroke="none" stroke-width="1" fill="none" fill-rule="evenodd">
        <g id="Bold-Text-Copy" fill="#000000">
            <g id="Page-1">
                <g>
                    <g id="Bold-Text-Copy">
                        <path d="M2.89114583,6.02516269 C2.06961395,5.92798215 1.39028046,5.57975717 0.853125,4.98047723 C0.315969537,4.38119729 0.0473958333,3.70094377 0.0473958333,2.93969629 C0.0473958333,2.11366181 0.308070308,1.4172118 0.829427083,0.850325378 C1.35078386,0.28343896 2.00641966,-1.65793305e-15 2.79635417,-1.65793305e-15 C3.68108081,-1.65793305e-15 4.4473058,0.368470648 5.09505211,1.10542299 C5.74279837,1.84237534 6.06666667,2.72913437 6.06666667,3.76572667 C6.06666667,6.94029065 4.34463526,9.41835697 0.900520833,11.2 L0,9.45075922 C1.92744019,8.47895393 2.89114583,7.33709984 2.89114583,6.02516269 Z M10.8244792,6.02516269 C10.0029473,5.92798215 9.32361379,5.57975717 8.78645833,4.98047723 C8.24930288,4.38119729 7.98072917,3.70094377 7.98072917,2.93969629 C7.98072917,2.11366181 8.24140366,1.4172118 8.76276044,0.850325378 C9.28411717,0.28343896 9.93975299,-1.65793305e-15 10.7296875,-1.65793305e-15 C11.6144141,-1.65793305e-15 12.3806391,0.368470648 13.0283854,1.10542299 C13.6761317,1.84237534 14,2.72913437 14,3.76572667 C14,6.94029065 12.2779686,9.41835697 8.83385417,11.2 L7.93333333,9.45075922 C9.86077353,8.47895393 10.8244792,7.33709984 10.8244792,6.02516269 Z" id=",," transform="translate(7.000000, 5.600000) rotate(180.000000) translate(-7.000000, -5.600000) "></path>
                    </g>
                </g>
            </g>
        </g>
    </g>
</svg>