<?xml version="1.0" encoding="UTF-8" standalone="no"?>
<svg width="56px" height="64px" viewBox="0 0 56 64" version="1.1" xmlns="http://www.w3.org/2000/svg" xmlns:xlink="http://www.w3.org/1999/xlink">
    <!-- Generator: Sketch 41 (35326) - http://www.bohemiancoding.com/sketch -->
    <title>File Copy 4</title>
    <desc>Created with Sketch.</desc>
    <defs></defs>
    <g id="Symbols" stroke="none" stroke-width="1" fill="none" fill-rule="evenodd">
        <g id="nav/doc64px/white" transform="translate(-4.000000, 0.000000)" fill="#FFFFFF">
            <g id="File-Copy-4" transform="translate(4.000000, 0.000000)">
                <path d="M15.4805196,21.0909091 L28.0546977,21.0909091 C28.454628,21.0909091 28.7788356,20.765298 28.7788356,20.3636364 C28.7788356,19.9619747 28.454628,19.6363636 28.0546977,19.6363636 L15.4805196,19.6363636 C15.0805893,19.6363636 14.7563817,19.9619747 14.7563817,20.3636364 C14.7563817,20.765298 15.0805893,21.0909091 15.4805196,21.0909091 Z" id="Stroke-1273"></path>
                <path d="M15.4805196,34.6666667 L40.6288757,34.6666667 C41.028806,34.6666667 41.3530136,34.3410556 41.3530136,33.9393939 C41.3530136,33.5377323 41.028806,33.2121212 40.6288757,33.2121212 L15.4805196,33.2121212 C15.0805893,33.2121212 14.7563817,33.5377323 14.7563817,33.9393939 C14.7563817,34.3410556 15.0805893,34.6666667 15.4805196,34.6666667 Z" id="Stroke-1275"></path>
                <path d="M15.4805196,46.3030303 L40.6288757,46.3030303 C41.028806,46.3030303 41.3530136,45.9774192 41.3530136,45.5757576 C41.3530136,45.1740959 41.028806,44.8484848 40.6288757,44.8484848 L15.4805196,44.8484848 C15.0805893,44.8484848 14.7563817,45.1740959 14.7563817,45.5757576 C14.7563817,45.9774192 15.0805893,46.3030303 15.4805196,46.3030303 Z" id="Stroke-1277"></path>
                <path d="M37.3608846,2.09448012 L37.8712327,2.30579691 L37.5726857,2.30579691 L37.3608846,2.09448012 Z M55.1844837,50.2137746 C55.1844837,57.3318097 49.4031901,63.09986 42.2734524,63.09986 L13.8356914,63.09986 C6.7067884,63.09986 0.924660144,57.3313881 0.924660144,50.2137746 L0.924660144,3.60499295 C0.924660144,2.0833986 2.15954492,0.851251453 3.68078524,0.851251453 L37.8712327,0.851251453 C38.062457,0.851251453 38.2459188,0.927216356 38.3815808,1.06256824 L54.9706939,17.6137519 C55.1321155,17.7748044 55.1967266,17.9765505 55.1844837,18.1703749 L55.1844837,50.2137746 Z M53.7362079,18.1297079 L55.1844837,18.1297079 C55.1619517,18.5270935 54.8791041,18.8569806 54.4603458,18.8569806 L39.9032199,18.8569806 C38.3816106,18.8569806 37.1470948,17.6257333 37.1470948,16.1032391 L37.1470948,1.57852418 L38.5953706,1.57852418 L38.5953706,16.1032391 C38.5953706,16.8201315 39.17922,17.4024351 39.9032199,17.4024351 L54.4603458,17.4024351 L53.9499977,18.6456638 L37.5726857,2.30579691 L3.68078524,2.30579691 C2.95729329,2.30579691 2.37293601,2.88885872 2.37293601,3.60499295 L2.37293601,50.2137746 C2.37293601,56.5258804 7.50449002,61.6453145 13.8356914,61.6453145 L42.2734524,61.6453145 C48.6054655,61.6453145 53.7362079,56.5263253 53.7362079,50.2137746 L53.7362079,18.1297079 Z" id="Stroke-1279"></path>
            </g>
        </g>
    </g>
</svg>