<?xml version="1.0" encoding="UTF-8" standalone="no"?>
<svg width="16px" height="15px" viewBox="0 0 16 15" version="1.1" xmlns="http://www.w3.org/2000/svg" xmlns:xlink="http://www.w3.org/1999/xlink">
    <!-- Generator: Sketch 41 (35326) - http://www.bohemiancoding.com/sketch -->
    <title>Numbering List</title>
    <desc>Created with Sketch.</desc>
    <defs></defs>
    <g id="Page-1" stroke="none" stroke-width="1" fill="none" fill-rule="evenodd">
        <g id="Numbering-List" fill="#000000">
            <g id="Page-1">
                <g>
                    <g id="Numbering-List">
                        <g id="noun_480983_cc-copy-2" transform="translate(4.000000, 0.500000)">
                            <rect id="Rectangle-path" x="0.4" y="0.3" width="11.6" height="1.2"></rect>
                            <rect id="Rectangle-path" x="0.4" y="5.9" width="11.6" height="1.2"></rect>
                            <rect id="Rectangle-path" x="0.4" y="11.5" width="11.6" height="1.2"></rect>
                        </g>
                        <path d="M1.568,3 L1.568,0.2 L1.116,0.2 C1.09999992,0.3066672 1.06666692,0.39599964 1.016,0.468 C0.96533308,0.54000036 0.9033337,0.59799978 0.83,0.642 C0.7566663,0.68600022 0.67400046,0.71666658 0.582,0.734 C0.48999954,0.75133342 0.39466716,0.75866668 0.296,0.756 L0.296,1.184 L1,1.184 L1,3 L1.568,3 Z" id="1"></path>
                        <path d="M0.912,12.332 L0.912,12.732 C0.98133368,12.732 1.05399962,12.734 1.13,12.738 C1.20600038,12.742 1.27599968,12.7566666 1.34,12.782 C1.40400032,12.8073334 1.45666646,12.8479997 1.498,12.904 C1.53933354,12.9600003 1.56,13.0413328 1.56,13.148 C1.56,13.2840007 1.51600044,13.391333 1.428,13.47 C1.33999956,13.5486671 1.23200064,13.588 1.104,13.588 C1.02133292,13.588 0.9500003,13.5733335 0.89,13.544 C0.8299997,13.5146665 0.7800002,13.4753336 0.74,13.426 C0.6999998,13.3766664 0.66933344,13.3180004 0.648,13.25 C0.62666656,13.1819996 0.61466668,13.110667 0.612,13.036 L0.072,13.036 C0.06933332,13.1986675 0.09266642,13.3426661 0.142,13.468 C0.19133358,13.5933339 0.26133288,13.6993329 0.352,13.786 C0.44266712,13.8726671 0.55266602,13.9386664 0.682,13.984 C0.81133398,14.0293336 0.95466588,14.052 1.112,14.052 C1.24800068,14.052 1.37866604,14.0320002 1.504,13.992 C1.62933396,13.9519998 1.73999952,13.8933337 1.836,13.816 C1.93200048,13.7386663 2.00866638,13.6426673 2.066,13.528 C2.12333362,13.4133328 2.152,13.2826674 2.152,13.136 C2.152,12.9759992 2.10800044,12.8386673 2.02,12.724 C1.93199956,12.6093328 1.81066744,12.5346669 1.656,12.5 L1.656,12.492 C1.78666732,12.4546665 1.88466634,12.3840005 1.95,12.28 C2.01533366,12.1759995 2.048,12.0560007 2.048,11.92 C2.048,11.7946661 2.02000028,11.6840005 1.964,11.588 C1.90799972,11.4919995 1.83533378,11.410667 1.746,11.344 C1.65666622,11.277333 1.55600056,11.2273335 1.444,11.194 C1.33199944,11.1606665 1.22000056,11.144 1.108,11.144 C0.96399928,11.144 0.83333392,11.1673331 0.716,11.214 C0.59866608,11.2606669 0.49800042,11.3266663 0.414,11.412 C0.32999958,11.4973337 0.2646669,11.5993328 0.218,11.718 C0.1713331,11.8366672 0.14533336,11.9679993 0.14,12.112 L0.68,12.112 C0.67733332,11.9679993 0.7126663,11.8486672 0.786,11.754 C0.8593337,11.6593329 0.96799928,11.612 1.112,11.612 C1.21600052,11.612 1.3079996,11.6439997 1.388,11.708 C1.4680004,11.7720003 1.508,11.8639994 1.508,11.984 C1.508,12.0640004 1.48866686,12.1279998 1.45,12.176 C1.41133314,12.2240002 1.3620003,12.2606665 1.302,12.286 C1.2419997,12.3113334 1.17733368,12.3266666 1.108,12.332 C1.03866632,12.3373333 0.97333364,12.3373333 0.912,12.332 Z" id="3"></path>
                        <path d="M0.148,6.776 L0.692,6.776 C0.692,6.70133295 0.69933326,6.6260004 0.714,6.55 C0.72866674,6.4739996 0.75333316,6.404667 0.788,6.342 C0.82266684,6.279333 0.86866638,6.22866685 0.926,6.19 C0.98333362,6.15133315 1.05333292,6.132 1.136,6.132 C1.25866728,6.132 1.35933294,6.1699996 1.438,6.246 C1.51666706,6.3220004 1.556,6.4279993 1.556,6.564 C1.556,6.64933375 1.53666686,6.725333 1.498,6.792 C1.45933314,6.858667 1.41133362,6.9186664 1.354,6.972 C1.29666638,7.0253336 1.23333368,7.0739998 1.164,7.118 C1.09466632,7.1620002 1.02933364,7.2053331 0.968,7.248 C0.8479994,7.3306671 0.73400054,7.4119996 0.626,7.492 C0.51799946,7.5720004 0.4240004,7.65933285 0.344,7.754 C0.2639996,7.84866715 0.2006669,7.9559994 0.154,8.076 C0.1073331,8.1960006 0.084,8.3373325 0.084,8.5 L2.14,8.5 L2.14,8.012 L0.816,8.012 C0.88533368,7.9159995 0.96533288,7.83200035 1.056,7.76 C1.14666712,7.68799965 1.23999952,7.620667 1.336,7.558 C1.43200048,7.495333 1.52733286,7.4320003 1.622,7.368 C1.71666714,7.3039997 1.80133296,7.23266705 1.876,7.154 C1.95066704,7.07533295 2.01066644,6.98533385 2.056,6.884 C2.10133356,6.78266615 2.124,6.66133405 2.124,6.52 C2.124,6.3839993 2.09800026,6.2613339 2.046,6.152 C1.99399974,6.0426661 1.92400044,5.95066705 1.836,5.876 C1.74799956,5.80133295 1.64600058,5.7440002 1.53,5.704 C1.41399942,5.6639998 1.29200064,5.644 1.164,5.644 C0.99599916,5.644 0.84733398,5.6726664 0.718,5.73 C0.58866602,5.7873336 0.48133376,5.8673328 0.396,5.97 C0.31066624,6.0726672 0.24666688,6.192666 0.204,6.33 C0.16133312,6.467334 0.14266664,6.6159992 0.148,6.776 Z" id="2"></path>
                    </g>
                </g>
            </g>
        </g>
    </g>
</svg>