<?xml version="1.0" encoding="UTF-8" standalone="no"?>
<svg width="14px" height="21px" viewBox="0 0 14 21" version="1.1" xmlns="http://www.w3.org/2000/svg" xmlns:xlink="http://www.w3.org/1999/xlink">
    <!-- Generator: Sketch 41 (35326) - http://www.bohemiancoding.com/sketch -->
    <title>Bold Text</title>
    <desc>Created with Sketch.</desc>
    <defs></defs>
    <g id="Page-1" stroke="none" stroke-width="1" fill="none" fill-rule="evenodd">
        <g id="Bold-Text" fill="#000000">
            <g id="Page-1">
                <g>
                    <g id="Bold-Text">
                        <g id="noun_609395_cc">
                            <path d="M10.9905454,9.56436365 C11.8458182,8.55127274 12.3636363,7.24436364 12.3636363,5.81818182 C12.3636363,2.61018182 9.75345452,0 6.54545455,0 L0,0 L0,8.72727272 L0,11.6363636 L0,20.3636364 L8.00000002,20.3636364 C11.208,20.3636364 13.8181818,17.7534545 13.8181818,14.5454546 C13.8181818,12.432 12.6814545,10.5832727 10.9905454,9.56436365 Z M2.90909091,2.90909091 L6.54545455,2.90909091 C8.14981815,2.90909091 9.45454548,4.21381818 9.45454548,5.81818182 C9.45454548,7.42254545 8.14981815,8.72727272 6.54545455,8.72727272 L2.90909091,8.72727272 L2.90909091,2.90909091 Z M8.00000002,17.4545454 L2.90909091,17.4545454 L2.90909091,11.6363636 L6.54545455,11.6363636 L8.00000002,11.6363636 C9.60436362,11.6363636 10.9090909,12.9410909 10.9090909,14.5454546 C10.9090909,16.1498182 9.60436362,17.4545454 8.00000002,17.4545454 Z" id="Shape"></path>
                        </g>
                    </g>
                </g>
            </g>
        </g>
    </g>
</svg>