<?xml version="1.0" encoding="UTF-8" standalone="no"?>
<svg width="16px" height="6px" viewBox="0 0 16 6" version="1.1" xmlns="http://www.w3.org/2000/svg" xmlns:xlink="http://www.w3.org/1999/xlink">
    <!-- Generator: Sketch 41 (35326) - http://www.bohemiancoding.com/sketch -->
    <title>Strikethrough Text</title>
    <desc>Created with Sketch.</desc>
    <defs></defs>
    <g id="Page-1" stroke="none" stroke-width="1" fill="none" fill-rule="evenodd">
        <g id="Strikethrough-Text" fill="#000000">
            <g id="Page-1">
                <g>
                    <g id="Strikethrough-Text">
                        <g id="Group-5">
                            <path d="M2.23227937,0.466488889 L3.20507937,0.466488889 L5.21650794,5.68888891 L4.23639365,5.68888891 L3.74633651,4.30648889 L1.66176508,4.30648889 L1.17170794,5.68888891 L0.228165079,5.68888891 L2.23227937,0.466488889 Z M1.91045079,3.61163174 L3.50496508,3.61163174 L2.72233651,1.36614603 L2.70039365,1.36614603 L1.91045079,3.61163174 Z M6.88938955,2.65346032 L8.38150384,2.65346032 C8.60093349,2.65346032 8.78378885,2.59128951 8.93007525,2.46694603 C9.07636171,2.34260255 9.14950384,2.16340435 9.14950384,1.92934603 C9.14950384,1.66603043 9.08367595,1.48073705 8.95201813,1.37346032 C8.82036032,1.26618359 8.63019083,1.21254603 8.38150384,1.21254603 L6.88938955,1.21254603 L6.88938955,2.65346032 Z M5.97510384,0.466488889 L8.51316101,0.466488889 C8.9812776,0.466488889 9.35674053,0.573764005 9.63956101,0.788317461 C9.92238144,1.00287091 10.0637895,1.32713434 10.0637895,1.76111746 C10.0637895,2.02443306 9.99918069,2.24995462 9.86996101,2.43768889 C9.74074128,2.62542316 9.55666693,2.77048838 9.31773243,2.87288889 L9.31773243,2.88751746 C9.63956261,2.95578447 9.88336971,3.1081639 10.049161,3.34466032 C10.2149523,3.58115674 10.2978467,3.87738235 10.2978467,4.23334603 C10.2978467,4.43814706 10.2612756,4.62953562 10.1881324,4.80751746 C10.1149892,4.9854993 10.0003999,5.13909777 9.84436101,5.26831746 C9.68832213,5.39753717 9.48840032,5.49993611 9.24458955,5.57551744 C9.00077883,5.65109877 8.71064837,5.68888891 8.37418955,5.68888891 L5.97510384,5.68888891 L5.97510384,0.466488889 Z M6.88938955,4.94283174 L8.50584672,4.94283174 C8.78379093,4.94283174 8.99956021,4.87090866 9.15316101,4.72706032 C9.30676176,4.58321198 9.38356101,4.37963306 9.38356101,4.11631746 C9.38356101,3.85787807 9.30676176,3.6591753 9.15316101,3.52020317 C8.99956021,3.38123105 8.78379093,3.31174603 8.50584672,3.31174603 L6.88938955,3.31174603 L6.88938955,4.94283174 Z M14.9110712,2.12683174 C14.8720615,1.97566909 14.8184239,1.83669905 14.7501569,1.70991746 C14.6818899,1.58313587 14.5941194,1.47342269 14.4868426,1.3807746 C14.3795659,1.28812652 14.2540052,1.21620343 14.1101569,1.16500317 C13.9663086,1.11380292 13.7993007,1.08820317 13.6091283,1.08820317 C13.3311841,1.08820317 13.0910341,1.14427881 12.8886712,1.25643174 C12.6863083,1.36858469 12.5217385,1.51852605 12.3949569,1.70626032 C12.2681753,1.89399459 12.1743096,2.10732579 12.1133569,2.34626032 C12.0524042,2.58519485 12.0219283,2.82900193 12.0219283,3.07768889 C12.0219283,3.32637585 12.0524042,3.57018293 12.1133569,3.80911746 C12.1743096,4.04805199 12.2681753,4.26138319 12.3949569,4.44911746 C12.5217385,4.63685173 12.6863083,4.78679309 12.8886712,4.89894603 C13.0910341,5.01109898 13.3311841,5.0671746 13.6091283,5.0671746 C13.8139294,5.0671746 13.9943466,5.03182258 14.1503855,4.96111746 C14.3064244,4.89041235 14.4405182,4.79288951 14.5526712,4.66854603 C14.6648242,4.54420255 14.7525947,4.39913734 14.8159855,4.23334603 C14.8793763,4.06755473 14.9208235,3.88957555 14.9403283,3.69940317 L15.8326712,3.69940317 C15.8131663,4.01148093 15.7461194,4.29673522 15.6315283,4.5551746 C15.5169373,4.81361399 15.3621198,5.03669747 15.1670712,5.22443174 C14.9720226,5.41216603 14.7428439,5.55723125 14.4795283,5.65963173 C14.2162127,5.76203227 13.9260823,5.81323173 13.6091283,5.81323173 C13.2190311,5.81323173 12.869168,5.74130864 12.5595283,5.59746032 C12.2498887,5.453612 11.9877961,5.25734727 11.7732426,5.00866032 C11.5586892,4.75997336 11.3941194,4.46984293 11.2795283,4.13826032 C11.1649373,3.80667771 11.1076426,3.45315743 11.1076426,3.07768889 C11.1076426,2.70709656 11.1649373,2.35601436 11.2795283,2.02443174 C11.3941194,1.69284914 11.5586892,1.4027187 11.7732426,1.15403174 C11.9877961,0.905344789 12.2498887,0.707861051 12.5595283,0.561574603 C12.869168,0.415288157 13.2190311,0.342146032 13.6091283,0.342146032 C13.9017012,0.342146032 14.1772033,0.382374201 14.4356426,0.462831746 C14.694082,0.543289291 14.9220417,0.660316693 15.1195283,0.813917461 C15.317015,0.967518229 15.4767087,1.15403065 15.598614,1.37346032 C15.7205194,1.59288998 15.7960996,1.84401129 15.8253569,2.12683174 L14.9110712,2.12683174 Z" id="ABC"></path>
                            <polygon id="Line" points="0.533333333 3.2 16 3.2 16 2.66666667 0.533333333 2.66666667"></polygon>
                        </g>
                    </g>
                </g>
            </g>
        </g>
    </g>
</svg>