<svg width="32" height="32" viewBox="0 0 32 32" xmlns="http://www.w3.org/2000/svg"><title>Repair</title><g fill="#041E42" fill-rule="evenodd" opacity=".8"><path d="M6.81 8.517c.165.016.318.09.434.206l.097.097 6.214 6.213c.275.275.275.722 0 .998-.276.277-.723.277-1 0L6.425 9.9l-3.3-.318c-.398-.038-.735-.312-.853-.693L.57 3.447c-.08-.252-.01-.525.174-.71l1.53-1.53c.185-.185.458-.252.71-.174l5.443 1.704c.374.115.644.438.692.824l.433 3.392 6.042 6.043c.275.275.275.722 0 .998-.276.276-.723.276-.998 0L8.38 7.78c-.11-.11-.18-.255-.2-.41l-.43-3.365-4.783-1.497-.924.924 1.492 4.77 3.276.315zM20.208 21.688l-3.41-3.41c-.275-.275-.722-.275-.997 0-.275.276-.275.723 0 1l3.91 3.907c.275.276.722.276.997 0l2.04-2.038c.274-.276.274-.723 0-.998l-3.91-3.91c-.276-.276-.723-.276-.998 0-.277.276-.277.723 0 .998l3.408 3.41-1.04 1.04z"/><path d="M24.744 30.252l.17.168.997-.998-.168-.17-.998 1zm4.213-3.876l.998-1-.168-.167-.998.997.167.17zm-.168 2.877c.84-.84.84-2.205 0-3.046l-5.553-5.552-3.046 3.047 5.552 5.55c.842.842 2.205.842 3.047 0zm.997 1c-1.283 1.28-3.3 1.382-4.697.303-.06-.034-.12-.08-.177-.136l-6.015-6.015c-.39-.39-.39-1.018 0-1.407l3.635-3.636c.39-.388 1.02-.388 1.407 0l6.015 6.015c.057.057.102.117.136.178 1.08 1.398.98 3.414-.303 4.697zM2.883 24.705l-.136.136 1 1 .134-.136-.997-1zm3.11 3.38l.998 1 .136-.136-.998-1-.135.136zM24.85 1.9c-.55.307-1.698.945-2.125 1.186l-.236.134c-1.53.865-2.628 1.547-2.695 1.644-.092.13-.164 1.038-.143 2.292.006.367.017.74.036 1.235l.024.642c.008.224.013.386.015.52.003.192-.07.377-.206.512L3.88 25.704c-.62.62-.62 1.626 0 2.247.62.62 1.627.62 2.248 0l15.546-15.545c.142-.142.338-.217.54-.205.162.01.45.023.82.038.613.023 1.223.037 1.792.038 1.165 0 2.09-.08 2.173-.137.167-.118 1.675-2.79 2.94-5.15l-.795-.796-2.955 2.954c-.388.39-1.02.39-1.408.002L22.76 7.127c-.39-.39-.39-1.02-.002-1.408l2.956-2.957-.864-.863zm3.59 3.002c.39-.39 1.02-.39 1.408 0l1.31 1.308c.307.308.385.78.176 1.166-.507.95-1.123 2.085-1.696 3.1-.98 1.745-1.503 2.592-1.83 2.82-.447.312-1.38.392-2.983.39-.588 0-1.216-.013-1.845-.038-.202-.007-.38-.015-.53-.022L6.99 29.084c-.054.055-.11.098-.168.132-1.177.897-2.864.808-3.94-.267-1.074-1.076-1.163-2.764-.266-3.94.033-.058.077-.115.13-.17L18.31 9.28l-.007-.197c-.003-.117-.02-.57-.023-.64-.02-.504-.03-.885-.037-1.264-.027-1.672.048-2.625.397-3.124.26-.375 1.186-.95 3.156-2.065l.24-.134C22.57 1.552 24.234.626 24.44.51c.392-.22.873-.145 1.186.168l1.38 1.38c.39.39.39 1.02 0 1.408l-2.954 2.956 1.434 1.434 2.954-2.954z"/></g></svg>