<svg width="26" height="32" viewBox="0 0 26 32" xmlns="http://www.w3.org/2000/svg"><title>Surveys</title><path d="M17.083 1.243l.493.218h-.29l-.203-.217zM26 25.163C26 28.935 23.15 32 19.626 32H6.37C2.85 32 0 28.936 0 25.162V1.75C0 .785.73 0 1.637 0h15.94c.184 0 .36.08.49.218L25.8 8.532c.15.16.21.362.2.554v16.076zM24.617 9.044h1.38c-.02.4-.29.73-.69.73h-6.786c-.907 0-1.637-.785-1.637-1.748V.73h1.38v7.297c0 .16.118.287.257.287h6.786l-.492 1.243-7.53-8.096H1.636c-.138 0-.255.128-.255.29V25.16c0 2.972 2.238 5.377 4.99 5.377h13.257c2.754 0 4.99-2.406 4.99-5.378V9.045z" fill="#041E42" fill-rule="evenodd" opacity=".8"/></svg>