<?xml version="1.0" encoding="UTF-8" standalone="no"?>
<svg width="20px" height="20px" viewBox="0 0 20 20" version="1.1" xmlns="http://www.w3.org/2000/svg" xmlns:xlink="http://www.w3.org/1999/xlink">
    <!-- Generator: Sketch 41 (35326) - http://www.bohemiancoding.com/sketch -->
    <title>nav/Next/white</title>
    <desc>Created with Sketch.</desc>
    <defs></defs>
    <g id="Symbols" stroke="none" stroke-width="1" fill="none" fill-rule="evenodd">
        <g id="buttons/Startbig/normal" transform="translate(-15.000000, -10.000000)" fill="#FFFFFF">
            <g id="nav/Next20/white" transform="translate(15.000000, 10.000000)">
                <g id="Window-Download" transform="translate(10.000000, 10.000000) rotate(-90.000000) translate(-10.000000, -10.000000) ">
                    <path d="M18.5328185,10 C18.5328185,5.28766565 14.7126276,1.46718147 10,1.46718147 C7.85537028,1.46718147 5.83712207,2.26011776 4.27915625,3.66970561 C2.50043217,5.27661001 1.46718147,7.55403535 1.46718147,10 C1.46718147,10.4762375 1.50568941,10.9457016 1.58192351,11.4040607 C2.2583959,15.4925985 5.8102579,18.5328185 10,18.5328185 C14.7129957,18.5328185 18.5328185,14.7129957 18.5328185,10 Z M20,10 C20,15.5232977 15.5232977,20 10,20 C5.08956289,20 0.927620356,16.4375809 0.134522396,11.6441671 C0.0451118935,11.1065865 0,10.5566112 0,10 C0,7.13480055 1.2120294,4.46332261 3.29521159,2.58137015 C5.12000061,0.93037056 7.48805809,-4.82475682e-17 10,-4.82475682e-17 C15.5229547,-4.82475682e-17 20,4.4773889 20,10 Z" id="Stroke-577"></path>
                    <path d="M9.31818182,6.68181818 L9.31818182,12.423445 C9.31818182,12.8000028 9.62344222,13.1052632 10,13.1052632 C10.3765578,13.1052632 10.6818182,12.8000028 10.6818182,12.423445 L10.6818182,6.68181818 C10.6818182,6.3052604 10.3765578,6 10,6 C9.62344222,6 9.31818182,6.3052604 9.31818182,6.68181818 Z" id="Stroke-579"></path>
                    <path d="M9.65631707,12.0484983 L9.70364481,12.0063033 C9.68710373,12.019348 9.67129327,12.0334157 9.65631707,12.0484983 Z M10.5366637,12.0753048 C10.5189251,12.0575662 10.5004078,12.0410814 10.4812318,12.025841 L10.5366637,12.0753048 Z M11.5357429,10.3729002 C11.8168143,10.1223116 12.2478099,10.1470228 12.4983984,10.4280942 C12.748987,10.7091655 12.7242758,11.1401611 12.4432045,11.3907497 L10.5921661,13.0395413 C10.3105885,13.3211188 9.85400476,13.3211188 9.60081467,13.0663478 L7.72138884,11.3907497 C7.44031745,11.1401611 7.41560627,10.7091655 7.66619486,10.4280942 C7.91678345,10.1470228 8.34777901,10.1223116 8.6288504,10.3729002 L10.081657,11.6692873 L11.5357429,10.3729002 Z M9.70364481,12.0063033 C9.91555229,11.8391885 10.2473715,11.8399773 10.4812318,12.025841 L10.081657,11.6692873 L9.70364481,12.0063033 Z" id="Stroke-581"></path>
                </g>
            </g>
        </g>
    </g>
</svg>