<?xml version="1.0" encoding="UTF-8" standalone="no"?>
<svg width="26px" height="32px" viewBox="0 0 26 32" version="1.1" xmlns="http://www.w3.org/2000/svg" xmlns:xlink="http://www.w3.org/1999/xlink">
    <!-- Generator: Sketch 41 (35326) - http://www.bohemiancoding.com/sketch -->
    <title>Lock Open</title>
    <desc>Created with Sketch.</desc>
    <defs></defs>
    <g id="Symbols" stroke="none" stroke-width="1" fill="none" fill-rule="evenodd">
        <g id="nav/Lock32px/white" transform="translate(-3.000000, 0.000000)" fill="#FFFFFF">
            <g id="Lock-Open" transform="translate(3.000000, 0.000000)">
                <path d="M18.7221696,30.0369517 C21.5500486,30.0369517 23.8421847,27.7966739 23.8421847,25.0327741 L23.8421847,14.5635112 C23.8421847,14.427837 23.7297251,14.3179217 23.5909104,14.3179217 L2.16832532,14.3179217 C2.02951057,14.3179217 1.91705094,14.427837 1.91705094,14.5635112 L1.91705094,25.0327741 C1.91705094,27.7966739 4.20918706,30.0369517 7.03706606,30.0369517 L18.7221696,30.0369517 Z M18.7221696,31.4487164 L7.03706606,31.4487164 C3.41144242,31.4487164 0.4726065,28.57637 0.4726065,25.0327741 L0.4726065,14.5635112 C0.4726065,13.6481409 1.23176593,12.906157 2.16832532,12.906157 L23.5909104,12.906157 C24.5274697,12.906157 25.2866292,13.6481409 25.2866292,14.5635112 L25.2866292,25.0327741 C25.2866292,28.57637 22.3477933,31.4487164 18.7221696,31.4487164 Z" id="Stroke-1273"></path>
                <path d="M5.72222222,13.2941176 C5.72222222,13.2570321 5.81234257,8.77947126 5.81293841,8.74252441 C5.87363606,4.97879129 9.01437156,1.94583818 12.8796807,1.94583818 C16.7829339,1.94583818 19.9473179,5.03862981 19.9473179,8.85357407 L19.9473179,13.6121623 C19.9473179,14.0020104 20.2706678,14.3180447 20.6695401,14.3180447 C21.0684125,14.3180447 21.3917624,14.0020104 21.3917624,13.6121623 L21.3917624,8.85357407 C21.3917624,4.25893369 17.5806785,0.534073469 12.8796807,0.534073469 C8.21297143,0.534073469 4.42324159,4.20479452 4.36820622,8.75317578 C4.36780185,8.78659486 4.27777778,13.2606049 4.27777778,13.2941176 C4.27777778,13.6839657 4.60112768,14 5,14 C5.39887232,14 5.72222222,13.6839657 5.72222222,13.2941176 Z" id="Stroke-1275"></path>
            </g>
        </g>
    </g>
</svg>