<svg width="30" height="28" viewBox="0 0 30 28" xmlns="http://www.w3.org/2000/svg"><title>Folder Copy</title><path d="M11.765 5.515L9.45 1.755l-.07-.143c-.038-.112-.12-.175-.2-.175H1.564c-.05 0-.195.208-.195.555v2.832H0v-.092h1.37v16.4c0 3.003 2.26 5.43 5.04 5.43h17.18c2.78 0 5.04-2.427 5.04-5.43V5.758c0-.174-.124-.307-.267-.307l-16.598.065zm16.596-1.5c.91 0 1.64.783 1.64 1.743v15.374C30 24.922 27.133 28 23.59 28H6.41C2.868 28 0 24.92 0 21.132v-16.4h1.37v.092H0V1.992C0 .932.645 0 1.565 0H9.18c.637 0 1.203.412 1.456 1.032l1.873 3.043 15.85-.06z" fill="#041E42" fill-rule="evenodd" opacity=".8"/></svg>