<svg width="14" height="14" viewBox="0 0 20 24" xmlns="http://www.w3.org/2000/svg"><title>Lock Copy 7</title><g fill="#041E42" fill-rule="evenodd"><path d="M2.086 18.467c0 1.83 1.526 3.318 3.41 3.318h8.49c1.886 0 3.41-1.487 3.41-3.318V11.01H2.087v7.457zm11.9 4.955h-8.49c-2.802 0-5.076-2.217-5.076-4.955v-7.584c0-.834.69-1.508 1.54-1.508h15.563c.85 0 1.54.674 1.54 1.508v7.584c0 2.738-2.274 4.955-5.077 4.955z"/><path d="M16.235 10.193V6.746c0-3.5-2.91-6.334-6.493-6.334-3.584 0-6.493 2.835-6.493 6.334v3.447h1.666V6.746c0-2.593 2.16-4.697 4.826-4.697 2.667 0 4.826 2.103 4.826 4.696v3.447h1.667z"/></g></svg>
