<svg width="28" height="31" viewBox="0 0 28 31" xmlns="http://www.w3.org/2000/svg"><title>User</title><g fill="#041E42" fill-rule="evenodd" opacity=".8"><path d="M26.55 24.298c0-3.683-5.565-6.86-12.55-6.86s-12.55 3.177-12.55 6.86v5.186c0 .04.04.08.104.08h24.892c.064 0 .105-.04.105-.08v-5.186zm1.45 0v5.186c0 .843-.7 1.516-1.554 1.516H1.554C.7 31 0 30.327 0 29.484v-5.186C0 19.608 6.32 16 14 16s14 3.61 14 8.298zM19.712 7c0-3.118-2.55-5.66-5.712-5.66-3.16 0-5.712 2.542-5.712 5.66 0 3.118 2.55 5.66 5.712 5.66 3.16 0 5.712-2.542 5.712-5.66zM21 7c0 3.873-3.14 7-7 7s-7-3.127-7-7 3.14-7 7-7 7 3.127 7 7z"/></g></svg>