<svg width="15px" height="20px" viewBox="0 0 20 20" version="1.1" xmlns="http://www.w3.org/2000/svg" xmlns:xlink="http://www.w3.org/1999/xlink">
    <defs></defs>
    <g id="Symbols" stroke="none" stroke-width="1" fill="none" fill-rule="evenodd">
        <g id="buttons/Close/normal" fill="#041E42">
            <g id="Delete-Circle">
                <path d="M18.5776488,10 C18.5776488,5.26263115 14.7373689,1.42235123 10,1.42235123 C5.26263115,1.42235123 1.42235123,5.26263115 1.42235123,10 C1.42235123,14.7373689 5.26263115,18.5776488 10,18.5776488 C14.7373689,18.5776488 18.5776488,14.7373689 18.5776488,10 Z M20,10 C20,15.5229117 15.5229117,20 10,20 C4.47708825,20 0,15.5229117 0,10 C0,4.47708825 4.47708825,0 10,0 C15.5229117,0 20,4.47708825 20,10 Z" id="Stroke-1067"></path>
                <path d="M8.1423886,12.8039971 L12.8039971,8.1423886 C13.0653343,7.88105141 13.0653343,7.45734009 12.8039971,7.1960029 C12.5426599,6.9346657 12.1189486,6.9346657 11.8576114,7.1960029 L7.1960029,11.8576114 C6.9346657,12.1189486 6.9346657,12.5426599 7.1960029,12.8039971 C7.45734009,13.0653343 7.88105141,13.0653343 8.1423886,12.8039971 Z" id="Stroke-1068"></path>
                <path d="M12.8039786,11.8575236 L8.14237012,7.19599631 C7.88102271,6.93465346 7.4573114,6.93467001 7.19598441,7.19603328 C6.93465743,7.45739655 6.93467398,7.88113358 7.19602138,8.14247644 L11.8576299,12.8040037 C12.1189773,13.0653465 12.5426886,13.06533 12.8040156,12.8039667 C13.0653426,12.5426034 13.065326,12.1188664 12.8039786,11.8575236 Z" id="Stroke-1069"></path>
            </g>
        </g>
    </g>
</svg>
