<?xml version="1.0" encoding="UTF-8" standalone="no"?>
<svg width="20px" height="32px" viewBox="0 0 20 32" version="1.1" xmlns="http://www.w3.org/2000/svg" xmlns:xlink="http://www.w3.org/1999/xlink">
    <!-- Generator: Sketch 41 (35326) - http://www.bohemiancoding.com/sketch -->
    <title>Bookmark Love Copy</title>
    <desc>Created with Sketch.</desc>
    <defs></defs>
    <g id="Symbols" stroke="none" stroke-width="1" fill="none" fill-rule="evenodd">
        <g id="nav/Bookmark32px/normalonblue" transform="translate(-6.000000, 0.000000)" fill="#FFFFFF">
            <g id="Bookmark-Love-Copy" transform="translate(6.000000, 0.000000)">
                <path d="M13.7045802,7.50696004 C15.0353342,8.42575569 15.3980388,10.2812475 14.5244941,11.6626824 C14.3577899,11.9260161 13.6987008,12.6147654 12.5487634,13.7640881 C12.5072834,13.8055353 12.5072834,13.8055353 12.4657887,13.8469556 C12.0302951,14.2815632 11.5640206,14.7419917 11.0977906,15.1991117 C10.8180655,15.4733711 10.6003972,15.6856976 10.4757352,15.8068327 C10.2106956,16.0643737 9.78936664,16.0643913 9.52430567,15.8068724 C9.39964392,15.6857577 9.18197782,15.473466 8.90225601,15.1992472 C8.43603152,14.7421949 7.96976245,14.2818236 7.5342728,13.8472536 C7.49263395,13.8056925 7.49263395,13.8056925 7.45100995,13.7641044 C6.30061912,12.6144056 5.64175259,11.9258228 5.47550586,11.6626824 C4.60196121,10.2812475 4.96466578,8.42575569 6.29541981,7.50696004 C7.48525555,6.68545894 9.04261523,6.89175953 9.99974317,7.91305481 C10.957084,6.89172959 12.5142495,6.68560317 13.7045802,7.50696004 Z M10.1419334,14.2206932 C10.6054964,13.766188 11.069015,13.3084808 11.5013281,12.8770473 C11.5424659,12.8359832 11.5424659,12.8359832 11.5835759,12.7949057 C12.5778871,11.801126 13.2891726,11.0578314 13.3702482,10.9297607 C13.8532875,10.1658759 13.6513648,9.13289783 12.9292386,8.63431852 C12.2236063,8.14741524 11.2785309,8.34916172 10.8059088,9.09657204 C10.7675625,9.1571095 10.7076276,9.28618093 10.6365013,9.46869523 C10.4101736,10.0494658 9.58982636,10.0494658 9.36349867,9.46869523 C9.29318264,9.28826003 9.23262744,9.15836815 9.19319979,9.09612329 C8.720889,8.34920484 7.77592062,8.14745379 7.07091688,8.63421118 C6.3486352,9.13289783 6.14671252,10.1658759 6.63008474,10.9302872 C6.71078668,11.0580246 7.42216319,11.8014857 8.41616494,12.7948895 C8.45741638,12.8361054 8.45741638,12.8361054 8.49869591,12.8773079 C8.93099434,13.3086933 9.39449824,13.7663345 9.85804671,14.2207634 C9.90735598,14.2691026 9.95471939,14.3155001 9.999964,14.3597925 C10.0452244,14.3154784 10.0926053,14.2690574 10.1419334,14.2206932 Z" id="Stroke-233"></path>
                <path d="M9.58879781,25.9913644 C9.84717429,25.8590204 10.1528257,25.8590204 10.4133839,25.9924866 L18.5509113,30.1955968 L18.5509113,1.46129202 L1.44908868,1.46129202 L1.44908868,30.1955972 L9.58879781,25.9913644 Z M1.33439288,31.8966583 C0.73048767,32.210158 0,31.7737377 0,31.0809853 L0,1.34140643 C0,0.597280694 0.604632202,0 1.34282218,0 L18.6571778,0 C19.3953678,0 20,0.597280694 20,1.34140643 L20,31.0809853 C20,31.773348 19.2711756,32.2094274 18.66694,31.8973485 L10.0000044,27.4207894 L1.33439288,31.8966583 Z" id="Stroke-235"></path>
            </g>
        </g>
    </g>
</svg>