<svg width="15" height="16" viewBox="0 0 20 20" xmlns="http://www.w3.org/2000/svg"><g fill="#041E42" fill-rule="evenodd"><path d="M18.578 10c0-4.737-3.84-8.578-8.578-8.578-4.737 0-8.578 3.84-8.578 8.578 0 4.737 3.84 8.578 8.578 8.578 4.737 0 8.578-3.84 8.578-8.578zM20 10c0 5.523-4.477 10-10 10S0 15.523 0 10 4.477 0 10 0s10 4.477 10 10z"/><path d="M10.364 9.982v-4.3c0-.377-.306-.682-.682-.682C9.305 5 9 5.305 9 5.682v4.582c0 .18.072.355.2.482l2.453 2.454c.266.266.698.266.964 0 .267-.266.267-.698 0-.964l-2.253-2.254z"/></g></svg>
