<?xml version="1.0" encoding="UTF-8" standalone="no"?>
<svg width="32px" height="32px" viewBox="0 0 32 32" version="1.1" xmlns="http://www.w3.org/2000/svg" xmlns:xlink="http://www.w3.org/1999/xlink">
    <!-- Generator: Sketch 41 (35326) - http://www.bohemiancoding.com/sketch -->
    <title>Window Check Copy 4</title>
    <desc>Created with Sketch.</desc>
    <defs></defs>
    <g id="Symbols" stroke="none" stroke-width="1" fill="none" fill-rule="evenodd">
        <g id="nav/Done32px/white" fill="#FFFFFF">
            <g id="Window-Check-Copy-4">
                <path d="M30.4913151,16 C30.4913151,7.96706885 23.9980212,1.46369496 16,1.46369496 C12.3631848,1.46369496 8.93809144,2.81134292 6.29310267,5.2079587 C3.26806108,7.9448222 1.50868486,11.8284489 1.50868486,16 C1.50868486,16.8120555 1.57428462,17.6129856 1.70414701,18.3949369 C2.8553785,25.3631421 8.89023432,30.536305 16,30.536305 C23.9986196,30.536305 30.4913151,24.0340296 30.4913151,16 Z M32,16 C32,24.8321896 24.8427501,32 16,32 C8.13759986,32 1.48123742,26.2940729 0.214574341,18.6271786 C0.0719766624,17.7685451 0,16.8897571 0,16 C0,11.420409 1.93469457,7.14978659 5.26375096,4.13787029 C8.18401928,1.49182428 11.9755417,0 16,0 C24.8421785,0 32,7.16893306 32,16 Z" id="Stroke-471"></path>
                <path d="M21.0240294,11.9697385 L14.1875637,19.0858891 C13.9136427,19.3710164 13.9297315,19.8176835 14.223499,20.083548 C14.5172666,20.3494125 14.977469,20.3337969 15.25139,20.0486696 L22.0878557,12.932519 C22.3617767,12.6473917 22.3456879,12.2007246 22.0519204,11.9348601 C21.7581529,11.6689956 21.2979504,11.6846112 21.0240294,11.9697385 Z" id="Stroke-475"></path>
                <path d="M11.219778,16.8922198 L14.1823554,20.042045 C14.4531586,20.3299642 14.9131655,20.3502962 15.2098095,20.0874578 C15.5064535,19.8246193 15.5274016,19.378142 15.2565984,19.0902228 L12.294021,15.9403976 C12.0232178,15.6524784 11.5632109,15.6321465 11.2665669,15.8949849 C10.9699229,16.1578233 10.9489748,16.6043006 11.219778,16.8922198 Z" id="Stroke-479"></path>
            </g>
        </g>
    </g>
</svg>