<?xml version="1.0" encoding="UTF-8"?>
<svg width="16px" height="16px" viewBox="0 0 16 16" version="1.1" xmlns="http://www.w3.org/2000/svg" xmlns:xlink="http://www.w3.org/1999/xlink">
    <!-- Generator: Sketch 43.2 (39069) - http://www.bohemiancoding.com/sketch -->
    <title>Shape</title>
    <desc>Created with Sketch.</desc>
    <defs></defs>
    <g id="UI-1920px" stroke="none" stroke-width="1" fill="none" fill-rule="evenodd">
        <g id="Library---Bookmarked---1920px" transform="translate(-350.000000, -203.000000)" fill-rule="nonzero" fill="#041E42">
            <path d="M362.469611,214.104939 C362.439376,214.14486 362.434113,214.149103 362.429292,214.154079 C362.393896,214.212446 362.3729,214.305986 362.301756,214.629783 C362.299213,214.641356 362.293932,214.340174 362.293932,214.340174 L362.485234,214.07717 C363.267868,213.001194 363.695616,211.708066 363.695616,210.347808 C363.695616,206.842011 360.853606,204 357.347808,204 C353.842011,204 351,206.842011 351,210.347808 C351,213.853606 353.842011,216.695616 357.347808,216.695616 C358.781733,216.695616 360.140538,216.220024 361.247152,215.357202 L362.148186,214.65467 L362.72516,215.640831 C362.10239,215.109528 362.10239,215.109528 361.674713,215.16816 C361.61373,215.18647 361.570361,215.199491 361.537793,215.209766 C361.457605,215.235063 361.442896,215.24371 361.391972,215.273648 C361.348662,215.298592 361.330519,215.311952 361.31768,215.322553 C361.341499,215.302885 361.390313,215.257921 361.45425,215.195729 C361.456985,215.193068 362.169543,214.49757 362.169543,214.49757 L365.964866,218.292893 L364.550653,218.292893 L365.292893,217.550653 L365.292893,218.964866 L361.504389,215.176362 L362.148366,214.470697 C362.257357,214.351266 362.351549,214.245284 362.415596,214.170148 C362.449323,214.130265 362.463301,214.113154 362.469611,214.104939 Z M361.051185,216.69547 C359.963787,217.331255 358.698348,217.695616 357.347808,217.695616 C353.289726,217.695616 350,214.405891 350,210.347808 C350,206.289726 353.289726,203 357.347808,203 C361.405891,203 364.695616,206.289726 364.695616,210.347808 C364.695616,211.961294 364.175562,213.453316 363.293932,214.665393 C363.293932,214.687204 363.116768,214.893026 362.887021,215.144781 L366,218.257759 L365.257759,219 L362.16103,215.90327 C361.999015,216.061407 361.892319,216.158494 361.874878,216.141632 C361.874878,216.141632 361.034254,216.681012 361.051185,216.69547 Z" id="Shape"></path>
        </g>
    </g>
</svg>