<svg width="20" height="20" viewBox="0 0 20 20" xmlns="http://www.w3.org/2000/svg"><title>Delete Circle normal</title><g fill="none" fill-rule="evenodd"><path d="M20 10c0 5.523-4.477 10-10 10S0 15.523 0 10 4.477 0 10 0s10 4.477 10 10z" fill="#FFF"/><path d="M18 10c0 4.418-3.582 8-8 8s-8-3.582-8-8 3.582-8 8-8 8 3.582 8 8z" fill="#14C578"/><path d="M8.142 12.804l4.662-4.662c.26-.26.26-.685 0-.946-.26-.26-.685-.26-.946 0l-4.662 4.662c-.26.26-.26.685 0 .946.26.26.685.26.946 0z" fill="#FFF"/><path d="M12.804 11.858L8.142 7.196c-.26-.26-.685-.26-.946 0-.26.26-.26.685 0 .946l4.662 4.662c.26.26.685.26.946 0 .26-.26.26-.685 0-.946z" fill="#FFF"/></g></svg>