<svg width="16px" height="20px" viewBox="0 0 20 20" version="1.1" xmlns="http://www.w3.org/2000/svg" xmlns:xlink="http://www.w3.org/1999/xlink">
    <!-- Generator: Sketch 41 (35326) - http://www.bohemiancoding.com/sketch -->
    <defs></defs>
    <g id="Symbols" stroke="none" stroke-width="1" fill="none" fill-rule="evenodd">
        <g id="icons/imgSelect/green" transform="translate(-2.000000, -2.000000)">
            <g id="Window-Check" transform="translate(2.000000, 2.000000)">
                <path d="M20,10 C20,15.5232977 15.5232977,20 10,20 C5.08956289,20 0.927620356,16.4375809 0.134522396,11.6441671 C0.0451118935,11.1065865 0,10.5566112 0,10 C0,7.13480055 1.2120294,4.46332261 3.29521159,2.58137015 C5.12000061,0.93037056 7.48805809,0 10,0 C15.5229547,0 20,4.4773889 20,10 Z" id="Stroke-471" fill="#FFFFFF"></path>
                <path d="M18,10 C18,14.4186382 14.4186382,18 10,18 C6.07165031,18 2.74209628,15.1500647 2.10761792,11.3153337 C2.03608951,10.8852692 2,10.445289 2,10 C2,7.70784044 2.96962352,5.57065808 4.63616927,4.06509612 C6.09600049,2.74429645 7.99044648,2 10,2 C14.4183638,2 18,5.58191112 18,10 Z" id="Stroke-471-Copy" fill="#14C578"></path>
                <path d="M12.4623524,7.15177771 L8.45661079,11.5116775 C8.19547696,11.7958988 8.20372006,12.2480771 8.47502226,12.5216458 C8.74632447,12.7952146 9.17794916,12.786579 9.43908299,12.5023576 L13.4448246,8.14245788 C13.7059584,7.85823652 13.6977154,7.40605828 13.4264131,7.1324895 C13.1551109,6.85892073 12.7234862,6.86755635 12.4623524,7.15177771 Z" id="Stroke-475" fill="#FCFCFD"></path>
                <path d="M6.71574939,10.5663574 L8.45163456,12.496182 C8.70988267,12.7832825 9.14139595,12.7967029 9.41544646,12.5261573 C9.68949696,12.2556116 9.70230733,11.8035501 9.44405922,11.5164496 L7.70817405,9.58662501 C7.44992594,9.29952449 7.01841266,9.2861041 6.74436215,9.55664974 C6.47031165,9.82719538 6.45750128,10.2792569 6.71574939,10.5663574 Z" id="Stroke-479" fill="#FCFCFD"></path>
            </g>
        </g>
    </g>
</svg>
