<svg width="15" height="15" viewBox="0 0 20 20" xmlns="http://www.w3.org/2000/svg"><title>Window Check</title><g fill="#14C578" fill-rule="evenodd"><path d="M18.533 10c0-4.712-3.82-8.533-8.533-8.533-2.145 0-4.163.793-5.72 2.203C2.5 5.277 1.466 7.554 1.466 10c0 .476.04.946.115 1.404.676 4.09 4.228 7.13 8.418 7.13 4.713 0 8.533-3.82 8.533-8.534zM20 10c0 5.523-4.477 10-10 10-4.91 0-9.072-3.562-9.865-8.356C.045 11.107 0 10.557 0 10c0-2.865 1.212-5.537 3.295-7.42C5.12.93 7.488 0 10 0c5.523 0 10 4.477 10 10z"/><path d="M12.462 7.152l-4.005 4.36c-.262.284-.253.736.018 1.01.27.273.703.265.964-.02l4.005-4.36c.26-.284.253-.736-.02-1.01-.27-.273-.702-.264-.963.02z"/><path d="M6.716 10.566l1.736 1.93c.258.287.69.3.963.03.274-.27.287-.722.03-1.01l-1.737-1.93c-.258-.286-.69-.3-.964-.03s-.286.723-.028 1.01z"/></g></svg>
