<svg width="32" height="32" viewBox="0 0 32 32" xmlns="http://www.w3.org/2000/svg"><g fill="#041E42" fill-rule="evenodd" opacity="1"><path d="M20.018 15.705c0-2.15-1.864-3.904-4.174-3.904-2.31 0-4.174 1.754-4.174 3.905 0 2.15 1.864 3.904 4.174 3.904 2.31 0 4.174-1.754 4.174-3.905zm1.454 0c0 2.94-2.525 5.316-5.628 5.316-3.104 0-5.63-2.374-5.63-5.315 0-2.94 2.526-5.316 5.63-5.316 3.103 0 5.628 2.374 5.628 5.315z"/><path d="M29.175 15.705c0 1.1-.148 2.18-.437 3.227l1.974 1.314c.597.4.743 1.19.322 1.763l-3.78 5.134c-.416.564-1.226.7-1.815.308l-2-1.332c-.933.62-1.936 1.12-2.99 1.492v2.29c0 .7-.59 1.26-1.31 1.26h-6.593c-.72 0-1.31-.56-1.31-1.26v-2.29c-1.054-.37-2.057-.873-2.99-1.492l-2 1.332c-.588.392-1.397.256-1.812-.308L.655 22.01c-.423-.574-.276-1.365.322-1.765l1.972-1.313c-.29-1.046-.438-2.128-.438-3.227 0-1.1.15-2.18.437-3.227L.976 11.164C.38 10.766.232 9.974.654 9.4l3.78-5.133c.416-.565 1.225-.7 1.815-.31L8.247 5.29c.932-.62 1.935-1.12 2.99-1.492v-2.29c0-.7.59-1.26 1.31-1.26h6.592c.72 0 1.31.56 1.31 1.26v2.29c1.054.37 2.057.873 2.99 1.492l2-1.332c.588-.392 1.398-.256 1.813.308l3.78 5.135c.422.574.276 1.366-.322 1.764l-1.972 1.314c.29 1.046.437 2.128.437 3.227zM4.65 11.898l-.162.497c-.344 1.067-.52 2.178-.52 3.31 0 1.132.176 2.244.52 3.31l.16.498-.442.295-2.272 1.512 3.604 4.893 2.734-1.82.417.3c1.066.767 2.243 1.356 3.495 1.74l.508.156v3.16h6.302v-3.16l.508-.157c1.25-.384 2.43-.973 3.495-1.74l.417-.3.428.284 2.307 1.536 3.603-4.893-2.715-1.807.16-.498c.346-1.066.523-2.178.523-3.31 0-1.132-.176-2.243-.52-3.31l-.16-.497.442-.296 2.27-1.512-3.602-4.893-2.734 1.82-.417-.3c-1.07-.767-2.246-1.356-3.498-1.74l-.507-.157V1.66h-6.302v3.16l-.508.156c-1.252.385-2.43.975-3.496 1.742l-.418.3-.428-.285-2.306-1.536-3.603 4.893 2.714 1.808z"/></g></svg>
