<svg width="20px" height="20px" viewBox="0 0 20 20" version="1.1" xmlns="http://www.w3.org/2000/svg" xmlns:xlink="http://www.w3.org/1999/xlink">
    <g id="Symbols" stroke="none" stroke-width="1" fill="none" fill-rule="evenodd">
        <g id="nav/Bug20px/white" fill="#041E42">
            <path d="M18.5328185,10 C18.5328185,5.28766565 14.7126276,1.46718147 10,1.46718147 C7.85537028,1.46718147 5.83712207,2.26011776 4.27915625,3.66970561 C2.50043217,5.27661001 1.46718147,7.55403535 1.46718147,10 C1.46718147,10.4762375 1.50568941,10.9457016 1.58192351,11.4040607 C2.2583959,15.4925985 5.8102579,18.5328185 10,18.5328185 C14.7129957,18.5328185 18.5328185,14.7129957 18.5328185,10 Z M20,10 C20,15.5232977 15.5232977,20 10,20 C5.08956289,20 0.927620356,16.4375809 0.134522396,11.6441671 C0.0451118935,11.1065865 0,10.5566112 0,10 C0,7.13480055 1.2120294,4.46332261 3.29521159,2.58137015 C5.12000061,0.93037056 7.48805809,0 10,0 C15.5229547,0 20,4.4773889 20,10 Z" id="Stroke-577" transform="translate(10.000000, 10.000000) rotate(-90.000000) translate(-10.000000, -10.000000) "></path>
            <path d="M9.31999999,6.17171717 L9.31999999,10.8282828 C9.31999999,11.199262 9.62444637,11.5 10,11.5 C10.3755536,11.5 10.68,11.199262 10.68,10.8282828 L10.68,6.17171717 C10.68,5.80073802 10.3755536,5.5 10,5.5 C9.62444637,5.5 9.31999999,5.80073802 9.31999999,6.17171717 Z" id="Stroke-579"></path>
            <circle id="Oval" cx="10" cy="13" r="1"></circle>
        </g>
    </g>
</svg>
