<?xml version="1.0" encoding="UTF-8" standalone="no"?>
<svg width="20px" height="24px" viewBox="0 0 20 24" version="1.1" xmlns="http://www.w3.org/2000/svg" xmlns:xlink="http://www.w3.org/1999/xlink">
    <!-- Generator: Sketch 41 (35326) - http://www.bohemiancoding.com/sketch -->
    <title>Lock Open Copy 6</title>
    <desc>Created with Sketch.</desc>
    <defs></defs>
    <g id="Symbols" stroke="none" stroke-width="1" fill="none" fill-rule="evenodd">
        <g id="nav/LockOpen24px/white" transform="translate(-2.000000, 0.000000)" fill="#FFFFFF">
            <g id="Lock-Open-Copy-6" transform="translate(2.000000, 0.000000)">
                <path d="M2.11289291,11.0882672 L2.11289291,18.5436289 C2.11289291,20.3750788 3.63855481,21.8619963 5.52389437,21.8619963 L14.0130208,21.8619963 C15.8983604,21.8619963 17.4240223,20.3750788 17.4240223,18.5436289 L17.4240223,11.0882672 L2.11289291,11.0882672 Z M14.0130208,23.4983599 L5.52389437,23.4983599 C2.72082019,23.4983599 0.446226243,21.2815297 0.446226243,18.5436289 L0.446226243,10.9593618 C0.446226243,10.1254313 1.13730411,9.45190353 1.98679642,9.45190353 L17.5501188,9.45190353 C18.3996111,9.45190353 19.090689,10.1254313 19.090689,10.9593618 L19.090689,18.5436289 C19.090689,21.2815297 16.816095,23.4983599 14.0130208,23.4983599 Z" id="Stroke-1273"></path>
                <path d="M4.58333333,6.00471985 C4.58333333,3.41185993 7.10191373,2.12553618 9.76850329,2.12553618 C12.4350929,2.12553618 14.5944353,4.23004175 14.5944353,6.82290167 L14.5944353,10.2701744 C14.5944353,10.7220437 14.9675313,11.0883562 15.4277686,11.0883562 C15.8880059,11.0883562 16.261102,10.7220437 16.261102,10.2701744 L16.261102,6.82290167 C16.261102,3.3235909 13.3528275,0.489172542 9.76850329,0.489172542 C6.18417911,0.489172542 2.91666667,2.50540908 2.91666667,6.00471985 C2.91666667,6.45658919 3.28976271,6.82290167 3.75,6.82290167 C4.21023729,6.82290167 4.58333333,6.45658919 4.58333333,6.00471985 Z" id="Stroke-1275"></path>
            </g>
        </g>
    </g>
</svg>