<?xml version="1.0" encoding="UTF-8" standalone="no"?>
<svg width="14px" height="14px" viewBox="0 0 14 14" version="1.1" xmlns="http://www.w3.org/2000/svg" xmlns:xlink="http://www.w3.org/1999/xlink">
    <!-- Generator: Sketch 41 (35326) - http://www.bohemiancoding.com/sketch -->
    <title>editor</title>
    <desc>Created with Sketch.</desc>
    <defs></defs>
    <g id="Page-1" stroke="none" stroke-width="1" fill="none" fill-rule="evenodd">
        <path d="M13,0 L11,0 L10,0 L4,0 L3,0 L1,0 C0.448,0 0,0.448 0,1 L0,3 C0,3.552 0.448,4 1,4 C1.552,4 2,3.552 2,3 C2,2.4485 2.4485,2 3,2 L4,2 L6,2 L6,12 L5,12 C4.448,12 4,12.448 4,13 C4,13.552 4.448,14 5,14 L9,14 C9.552,14 10,13.552 10,13 C10,12.448 9.552,12 9,12 L8,12 L8,2 L10,2 L11,2 C11.5515,2 12,2.4485 12,3 C12,3.552 12.448,4 13,4 C13.552,4 14,3.552 14,3 L14,1 C14,0.448 13.552,0 13,0 Z" id="editor" fill="#FFFFFF"></path>
    </g>
</svg>