<?xml version="1.0" encoding="UTF-8" standalone="no"?>
<svg width="62px" height="35px" viewBox="0 0 62 35" version="1.1" xmlns="http://www.w3.org/2000/svg" xmlns:xlink="http://www.w3.org/1999/xlink">
    <!-- Generator: Sketch 41 (35326) - http://www.bohemiancoding.com/sketch -->
    <title>Link Copy</title>
    <desc>Created with Sketch.</desc>
    <defs></defs>
    <g id="Symbols" stroke="none" stroke-width="1" fill="none" fill-rule="evenodd">
        <g id="nav/link64px/white" transform="translate(-1.000000, -29.000000)" fill="#FFFFFF">
            <g id="Link-Copy" transform="translate(1.000000, 29.000000)">
                <path d="M18.3493526,18.1907895 L42.2694782,18.1907895 C42.6645742,18.1907895 42.9848628,17.8815125 42.9848628,17.5 C42.9848628,17.1184875 42.6645742,16.8092105 42.2694782,16.8092105 L18.3493526,16.8092105 C17.9542566,16.8092105 17.633968,17.1184875 17.633968,17.5 C17.633968,17.8815125 17.9542566,18.1907895 18.3493526,18.1907895 Z" id="Stroke-8"></path>
                <path d="M24.7226956,33.3457895 L16.4939233,33.3457895 C8.2375499,33.3457895 1.51795466,26.2774025 1.51795466,17.5313158 C1.51795466,8.78443231 8.23713774,1.71684211 16.4939233,1.71684211 L24.7226956,1.71684211 C25.1177916,1.71684211 25.4380803,1.40756512 25.4380803,1.02605263 C25.4380803,0.64454014 25.1177916,0.335263158 24.7226956,0.335263158 L16.4939233,0.335263158 C7.41832546,0.335263158 0.0871854317,8.04654188 0.0871854317,17.5313158 C0.0871854317,27.0152786 7.41871973,34.7273684 16.4939233,34.7273684 L24.7226956,34.7273684 C25.1177916,34.7273684 25.4380803,34.4180914 25.4380803,34.0365789 C25.4380803,33.6550665 25.1177916,33.3457895 24.7226956,33.3457895 Z" id="Stroke-10"></path>
                <path d="M36.6820109,1.71635088 L44.76502,1.71635088 C53.1042207,1.71635088 59.8867519,8.78505832 59.8867519,17.5308246 C59.8867519,26.2765908 53.1042207,33.3452982 44.76502,33.3452982 L36.6820109,33.3452982 C36.2869149,33.3452982 35.9666263,33.6545752 35.9666263,34.0360877 C35.9666263,34.4176002 36.2869149,34.7268772 36.6820109,34.7268772 L44.76502,34.7268772 C53.9198347,34.7268772 61.3175211,27.0170591 61.3175211,17.5308246 C61.3175211,8.04458997 53.9198347,0.33477193 44.76502,0.33477193 L36.6820109,0.33477193 C36.2869149,0.33477193 35.9666263,0.644048912 35.9666263,1.0255614 C35.9666263,1.4070739 36.2869149,1.71635088 36.6820109,1.71635088 Z" id="Stroke-12"></path>
            </g>
        </g>
    </g>
</svg>