<?xml version="1.0" encoding="UTF-8" standalone="no"?>
<svg width="16px" height="10px" viewBox="0 0 16 10" version="1.1" xmlns="http://www.w3.org/2000/svg" xmlns:xlink="http://www.w3.org/1999/xlink">
    <!-- Generator: Sketch 41 (35326) - http://www.bohemiancoding.com/sketch -->
    <title>link</title>
    <desc>Created with Sketch.</desc>
    <defs></defs>
    <g id="Page-1" stroke="none" stroke-width="1" fill="none" fill-rule="evenodd">
        <path d="M16,5.9702643 C15.9998489,5.05015775 15.6415091,4.184913 14.9907241,3.53412805 C14.339788,2.88334309 13.4748456,2.52500331 12.554739,2.52485217 L11.4476791,2.52485217 C11.291255,1.95719117 10.9909508,1.43668411 10.5632403,1.00912474 C9.91230423,0.358339788 9.04721062,0 8.12680181,0 L3.44571439,0.000302268906 C1.54595432,0.000302268906 0.000151134453,1.54580319 0,3.44541212 C0.000151134453,4.39514103 0.386450796,5.25615401 1.01033382,5.87988589 C1.63421684,6.50392005 2.49568322,6.89037085 3.44541212,6.89037085 L4.53871876,6.89037085 L4.53871876,6.84170555 C4.69091115,7.42825836 4.99650502,7.96599475 5.43630627,8.40594714 C5.43645741,8.40624941 5.43660854,8.40655168 5.43675968,8.40655168 C6.08769577,9.0571855 6.95278938,9.41552529 7.87304706,9.41522302 L12.5545879,9.41552529 C14.4541968,9.41522302 15.9996977,7.8697221 16,5.9702643 Z M8.12695294,5.15141783 L6.37696711,5.15141783 C6.66759866,4.62320292 7.22921429,4.26440973 7.87319819,4.26440973 L9.62288176,4.26425859 C9.33255247,4.7924735 8.77093684,5.15141783 8.12695294,5.15141783 Z M1.73925528,3.44541212 C1.73925528,2.50475129 2.50475129,1.73940642 3.44571439,1.73940642 L8.12695294,1.73925528 C8.58277445,1.73925528 9.01124062,1.91668713 9.33345928,2.23890579 C9.4212684,2.3267149 9.49728903,2.42313868 9.56318365,2.52515444 L7.87319819,2.52530557 C6.25575728,2.52530557 4.89569834,3.64581641 4.52693027,5.15141783 L3.44571439,5.15141783 C2.50475129,5.15141783 1.73925528,4.38607296 1.73925528,3.44541212 Z M12.554739,7.67642114 L7.87334933,7.67611887 C7.2713808,7.67611887 6.74241022,7.36236374 6.43847883,6.89067312 L8.12695294,6.89067312 C9.74439386,6.89067312 11.1044528,5.76986001 11.4730697,4.26410746 L12.554739,4.26425859 C13.495551,4.26425859 14.2604424,5.02960346 14.2607447,5.97041543 C14.2607447,6.91092513 13.4952487,7.67642114 12.554739,7.67642114 Z" id="link" fill="#FFFFFF"></path>
    </g>
</svg>