<?xml version="1.0" encoding="UTF-8" standalone="no"?>
<svg width="56px" height="64px" viewBox="0 0 56 64" version="1.1" xmlns="http://www.w3.org/2000/svg" xmlns:xlink="http://www.w3.org/1999/xlink">
    <!-- Generator: Sketch 41 (35326) - http://www.bohemiancoding.com/sketch -->
    <title>File Copy 7</title>
    <desc>Created with Sketch.</desc>
    <defs></defs>
    <g id="Symbols" stroke="none" stroke-width="1" fill="none" fill-rule="evenodd">
        <g id="nav/pdf64px/white" transform="translate(-4.000000, 0.000000)" fill="#FFFFFF">
            <g id="File-Copy-7" transform="translate(4.000000, 0.000000)">
                <path d="M37.3608846,2.09448012 L37.8712327,2.30579691 L37.5726857,2.30579691 L37.3608846,2.09448012 Z M55.1844837,50.2137746 C55.1844837,57.3318097 49.4031901,63.09986 42.2734524,63.09986 L13.8356914,63.09986 C6.7067884,63.09986 0.924660144,57.3313881 0.924660144,50.2137746 L0.924660144,3.60499295 C0.924660144,2.0833986 2.15954492,0.851251453 3.68078524,0.851251453 L37.8712327,0.851251453 C38.062457,0.851251453 38.2459188,0.927216356 38.3815808,1.06256824 L54.9706939,17.6137519 C55.1321155,17.7748044 55.1967266,17.9765505 55.1844837,18.1703749 L55.1844837,50.2137746 Z M53.7362079,18.1297079 L55.1844837,18.1297079 C55.1619517,18.5270935 54.8791041,18.8569806 54.4603458,18.8569806 L39.9032199,18.8569806 C38.3816106,18.8569806 37.1470948,17.6257333 37.1470948,16.1032391 L37.1470948,1.57852418 L38.5953706,1.57852418 L38.5953706,16.1032391 C38.5953706,16.8201315 39.17922,17.4024351 39.9032199,17.4024351 L54.4603458,17.4024351 L53.9499977,18.6456638 L37.5726857,2.30579691 L3.68078524,2.30579691 C2.95729329,2.30579691 2.37293601,2.88885872 2.37293601,3.60499295 L2.37293601,50.2137746 C2.37293601,56.5258804 7.50449002,61.6453145 13.8356914,61.6453145 L42.2734524,61.6453145 C48.6054655,61.6453145 53.7362079,56.5263253 53.7362079,50.2137746 L53.7362079,18.1297079 Z" id="Stroke-1279"></path>
                <path d="M18,32 L21.7258935,32 C22.3251937,32 22.8140891,32.0821654 23.1925945,32.2464986 C23.5710999,32.4108318 23.86286,32.6162453 24.0678838,32.8627451 C24.2729075,33.1092449 24.4128735,33.3781498 24.4877861,33.6694678 C24.5626986,33.9607858 24.6001543,34.2296906 24.6001543,34.4761905 C24.6001543,34.7226903 24.5626986,34.9897278 24.4877861,35.2773109 C24.4128735,35.5648941 24.2729075,35.8319315 24.0678838,36.0784314 C23.86286,36.3249312 23.5710999,36.5284773 23.1925945,36.6890756 C22.8140891,36.849674 22.3251937,36.929972 21.7258935,36.929972 L19.4785292,36.929972 L19.4785292,40 L18,40 L18,32 Z M19.4785292,35.7871148 L21.6430959,35.7871148 C21.808692,35.7871148 21.9782283,35.7647061 22.15171,35.719888 C22.3251916,35.6750698 22.4848711,35.6022414 22.6307534,35.5014006 C22.7766357,35.4005597 22.8949168,35.2661073 22.9856004,35.0980392 C23.076284,34.9299711 23.1216251,34.7189555 23.1216251,34.464986 C23.1216251,34.2035468 23.082198,33.986929 23.0033428,33.8151261 C22.9244875,33.6433231 22.8180344,33.5070033 22.6839805,33.4061625 C22.5499265,33.3053216 22.396161,33.236228 22.2226794,33.1988796 C22.0491977,33.1615311 21.8638906,33.1428571 21.6667524,33.1428571 L19.4785292,33.1428571 L19.4785292,35.7871148 Z M26.259064,32 L29.7602211,32 C30.4068345,32 30.9666986,32.1045741 31.4398303,32.3137255 C31.912962,32.5228769 32.2993471,32.8085883 32.5989972,33.1708683 C32.8986473,33.5331484 33.1214101,33.9570471 33.2672924,34.442577 C33.4131746,34.928107 33.4861147,35.4472428 33.4861147,36 C33.4861147,36.5527572 33.4131746,37.071893 33.2672924,37.557423 C33.1214101,38.0429529 32.8986473,38.4668516 32.5989972,38.8291317 C32.2993471,39.1914117 31.912962,39.4771231 31.4398303,39.6862745 C30.9666986,39.8954259 30.4068345,40 29.7602211,40 L26.259064,40 L26.259064,32 Z M27.7375932,38.8571429 L29.1924659,38.8571429 C29.7681095,38.8571429 30.2392628,38.7843145 30.6059398,38.6386555 C30.9726169,38.4929965 31.2604344,38.2913178 31.4694009,38.0336134 C31.6783674,37.7759091 31.8203048,37.4733911 31.8952173,37.1260504 C31.9701298,36.7787097 32.0075855,36.4033634 32.0075855,36 C32.0075855,35.5966366 31.9701298,35.2212903 31.8952173,34.8739496 C31.8203048,34.5266089 31.6783674,34.2240909 31.4694009,33.9663866 C31.2604344,33.7086822 30.9726169,33.5070035 30.6059398,33.3613445 C30.2392628,33.2156855 29.7681095,33.1428571 29.1924659,33.1428571 L27.7375932,33.1428571 L27.7375932,38.8571429 Z M35.1686809,32 L41,32 L41,33.210084 L36.6472101,33.210084 L36.6472101,35.3053221 L40.4677295,35.3053221 L40.4677295,36.4481793 L36.6472101,36.4481793 L36.6472101,40 L35.1686809,40 L35.1686809,32 Z" id="PDF"></path>
            </g>
        </g>
    </g>
</svg>