<?xml version="1.0" encoding="UTF-8" standalone="no"?>
<svg width="14px" height="15px" viewBox="0 0 14 15" version="1.1" xmlns="http://www.w3.org/2000/svg" xmlns:xlink="http://www.w3.org/1999/xlink">
    <!-- Generator: Sketch 41 (35326) - http://www.bohemiancoding.com/sketch -->
    <title>pdf</title>
    <desc>Created with Sketch.</desc>
    <defs></defs>
    <g id="Page-1" stroke="none" stroke-width="1" fill="none" fill-rule="evenodd">
        <path d="M12.2308919,8.28465099 L11.9999375,8.28465099 L11.9999375,4.1432637 L8.29309482,0 L1.96897673,0 C0.883318739,0 0,0.883162372 0,1.96897673 L0,13.0310233 C0,14.1166813 0.883162372,15 1.96897673,15 L10.0311171,15 C11.1167751,15 12.0000938,14.1168376 12.0000938,13.0310233 L12.0000938,12.5548849 L12.2308919,12.5548849 C12.77505,12.5548849 13.2161621,12.1136165 13.2161621,11.5694583 L13.2161621,9.26992119 C13.2161621,8.72576307 12.7752064,8.28465099 12.2308919,8.28465099 Z M8.55235176,1.69705404 L10.4817676,3.85335877 L8.55235176,3.85335877 L8.55235176,1.69705404 Z M11.0618902,13.0310233 C11.0618902,13.5994183 10.5995121,14.0617963 10.0311171,14.0617963 L1.96897673,14.0617963 C1.40058169,14.0617963 0.938203653,13.5994183 0.938203653,13.0310233 L0.938203653,1.96897673 C0.938203653,1.40058169 1.40058169,0.938203653 1.96897673,0.938203653 L7.61414811,0.938203653 L7.61414811,4.79156242 L11.0618902,4.79156242 L11.0618902,8.28465099 L6.15383413,8.28465099 C5.60967601,8.28465099 5.16840756,8.72576307 5.16840756,9.27007756 L5.16840756,11.5696147 C5.16840756,12.1136165 5.60951964,12.5550413 6.15383413,12.5550413 L11.0618902,12.5550413 L11.0618902,13.0310233 Z M10.4279772,10.5133538 C10.4279772,11.1608707 10.0850638,11.5716475 9.34904303,11.5716475 L8.4088066,11.5716475 L8.4088066,9.461002 L9.47601326,9.461002 C10.179666,9.461002 10.4279772,9.98139229 10.4279772,10.5133538 Z M8.19004879,10.1823242 C8.19004879,10.6936452 7.84713535,10.9330435 7.36224043,10.9330435 L6.97804603,10.9330435 L6.97804603,11.5716475 L6.32755817,11.5716475 L6.32755817,9.461002 L7.41556167,9.461002 C7.98896047,9.461002 8.19004879,9.88069177 8.19004879,10.1823242 Z M12.3408181,10.0018764 L11.3594571,10.0018764 L11.3594571,10.2651989 L12.201964,10.2651989 L12.201964,10.767607 L11.3594571,10.767607 L11.3594571,11.5718039 L10.7089692,11.5718039 L10.7089692,9.461002 L12.3409745,9.461002 L12.3409745,10.0018764 L12.3408181,10.0018764 Z" id="pdf" fill="#FFFFFF"></path>
    </g>
</svg>