<?xml version="1.0" encoding="UTF-8" standalone="no"?>
<svg width="40px" height="64px" viewBox="0 0 40 64" version="1.1" xmlns="http://www.w3.org/2000/svg" xmlns:xlink="http://www.w3.org/1999/xlink">
    <!-- Generator: Sketch 41 (35326) - http://www.bohemiancoding.com/sketch -->
    <title>Group 27 Copy</title>
    <desc>Created with Sketch.</desc>
    <defs></defs>
    <g id="Symbols" stroke="none" stroke-width="1" fill="none" fill-rule="evenodd">
        <g id="nav/quiz64px/white" transform="translate(-12.000000, 0.000000)" fill="#FFFFFF">
            <g id="Group-27-Copy" transform="translate(12.000000, 0.000000)">
                <path d="M33.7911259,33.1482051 C33.8201363,32.7321177 33.500288,32.3461648 33.0604563,32.3461648 L32.9987726,33.0961648 L33.6500398,33.4380399 C33.6980938,33.3418634 33.7451245,33.2452475 33.7911259,33.1482051 C34.759097,31.1062199 35.2713139,28.8753833 35.2713139,26.5753796 C35.2713139,18.2390308 28.6756289,11.4817087 20.5386625,11.4817087 C12.401696,11.4817087 5.80601101,18.2390308 5.80601101,26.5753796 C5.80601101,28.9846876 6.36806946,31.3180983 7.42728517,33.4380399 L10.9966158,42.5058415 C11.1479334,42.8899205 11.5743641,43.0755442 11.9490753,42.9204436 C12.3237865,42.7653431 12.5048828,42.3282516 12.3535652,41.9441726 L8.75702702,32.8153304 C7.77513489,30.8435594 7.26942565,28.744085 7.26942565,26.5753796 C7.26942565,19.0676197 13.2097599,12.9817087 20.5386625,12.9817087 C27.8675651,12.9817087 33.8078993,19.0676197 33.8078993,26.5753796 C33.8078993,28.744085 33.30219,30.8435594 32.3475055,32.7542898 C32.2923227,32.8647339 32.266669,32.9797691 32.266106,33.0919544 C32.2641249,33.4867024 32.5728006,33.8461648 32.9987726,33.8461648 L33.0604563,33.0961648 L32.3879429,32.8006496 L28.5698469,41.9294918 C28.410619,42.3101962 28.5826339,42.7511248 28.9540528,42.9143334 C29.3254717,43.0775419 29.755646,42.9012267 29.9148738,42.5205223 L33.7329698,33.39168 C33.7666613,33.3111258 33.7854861,33.229096 33.7911259,33.1482051 Z" id="Stroke-169"></path>
                <path d="M28.5235154,42.9741073 L12.5103769,42.9741073 L14.4241576,57.7137289 L25.8383385,57.7137289 L28.5235154,42.9741073 Z M26.1616994,59.2137289 L14.0855389,59.2137289 C13.5730419,59.2137289 13.132634,58.8433243 13.0228647,58.2786777 L10.9495366,42.3231273 C10.8911164,41.8735473 11.2323507,41.4741073 11.6748387,41.4741073 L29.4045004,41.4741073 C29.8624282,41.4741073 30.2078308,41.9003731 30.1237755,42.3617741 L27.2160548,58.3228792 C27.117721,58.8409784 26.6756902,59.2137289 26.1616994,59.2137289 Z" id="Stroke-170"></path>
                <path d="M25.5659019,58.0283502 L23.0330931,61.669861 C22.8469851,61.9367915 22.5497378,62.0943392 22.2340834,62.0943392 L18.0106373,62.0943392 C17.6951092,62.0943392 17.3983939,61.93697 17.2131861,61.6702921 L14.6814363,58.0284937 L13.4896416,58.8989642 L16.0211916,62.540475 C16.480314,63.2015587 17.2208908,63.5943392 18.0106373,63.5943392 L22.2340834,63.5943392 C23.0233622,63.5943392 23.7635483,63.2020242 24.2242047,62.5413128 L26.757497,58.8991077 L25.5659019,58.0283502 Z" id="Stroke-171"></path>
                <path d="M12.4949803,48.0039683 L22.9875059,48.0039683 C23.3916167,48.0039683 23.7192132,47.6681818 23.7192132,47.2539683 C23.7192132,46.8397547 23.3916167,46.5039683 22.9875059,46.5039683 L12.4949803,46.5039683 C12.0908695,46.5039683 11.763273,46.8397547 11.763273,47.2539683 C11.763273,47.6681818 12.0908695,48.0039683 12.4949803,48.0039683 Z" id="Stroke-172"></path>
                <path d="M13.4495673,51.9404762 L20.1239969,51.9404762 C20.5281076,51.9404762 20.8557042,51.6046898 20.8557042,51.1904762 C20.8557042,50.7762626 20.5281076,50.4404762 20.1239969,50.4404762 L13.4495673,50.4404762 C13.0454565,50.4404762 12.71786,50.7762626 12.71786,51.1904762 C12.71786,51.6046898 13.0454565,51.9404762 13.4495673,51.9404762 Z" id="Stroke-173"></path>
                <path d="M20.2439024,6.36210224 L20.2439024,1.14598821 C20.2439024,0.731774646 19.9163059,0.395988209 19.5121951,0.395988209 C19.1080843,0.395988209 18.7804878,0.731774646 18.7804878,1.14598821 L18.7804878,6.36210224 C18.7804878,6.7763158 19.1080843,7.11210224 19.5121951,7.11210224 C19.9163059,7.11210224 20.2439024,6.7763158 20.2439024,6.36210224 Z" id="Stroke-174"></path>
                <path d="M5.35809418,13.5446669 L1.75777947,9.85559664 C1.4719815,9.56275313 1.00869005,9.56283372 0.722989069,9.85577663 C0.437288083,10.1487196 0.437366704,10.6235933 0.723164673,10.9164368 L4.32347939,14.6055071 C4.60927736,14.8983506 5.0725688,14.89827 5.35826978,14.6053271 C5.64397077,14.3123842 5.64389215,13.8375104 5.35809418,13.5446669 Z" id="Stroke-175"></path>
                <path d="M35.9233814,14.6055071 L39.5236961,10.9164368 C39.809494,10.6235933 39.8095727,10.1487196 39.5238717,9.85577663 C39.2381707,9.56283372 38.7748792,9.56275313 38.4890813,9.85559664 L34.8887666,13.5446669 C34.6029686,13.8375104 34.60289,14.3123842 34.888591,14.6053271 C35.1742919,14.89827 35.6375834,14.8983506 35.9233814,14.6055071 Z" id="Stroke-176"></path>
            </g>
        </g>
    </g>
</svg>