<?xml version="1.0" encoding="UTF-8" standalone="no"?>
<svg width="52px" height="51px" viewBox="0 0 52 51" version="1.1" xmlns="http://www.w3.org/2000/svg" xmlns:xlink="http://www.w3.org/1999/xlink">
    <!-- Generator: Sketch 41 (35326) - http://www.bohemiancoding.com/sketch -->
    <title>New Message Copy 3</title>
    <desc>Created with Sketch.</desc>
    <defs></defs>
    <g id="Symbols" stroke="none" stroke-width="1" fill="none" fill-rule="evenodd">
        <g id="nav/reflection64px/white" transform="translate(-6.000000, -13.000000)" fill="#FFFFFF">
            <g id="New-Message-Copy-3" transform="translate(6.000000, 13.000000)">
                <path d="M17.771413,47.158059 L49.1796525,15.9126358 C50.4090794,14.6895821 50.1458931,12.3317707 48.4663355,10.6609197 L41.330379,3.56195513 C39.6478283,1.88812656 37.269204,1.62504744 36.0355203,2.85233587 L4.62867404,34.0963731 C4.51555085,34.2089098 4.43888363,34.3516255 4.4165425,34.452783 L2.50375896,49.271036 C2.50386132,49.2702383 17.3768081,47.3752086 17.3768081,47.3752086 C17.5265368,47.3408641 17.663223,47.2656882 17.771413,47.158059 Z M17.6671398,48.9509502 L2.71514109,50.8616372 C1.67377773,50.993888 0.783005633,50.1095607 0.916877911,49.0663324 L2.83886793,34.1921033 C2.93285948,33.7245817 3.16289023,33.2963807 3.50089331,32.9601298 L34.9077396,1.71609261 C36.827591,-0.193806546 40.199919,0.179177565 42.4581597,2.42571188 L49.5941162,9.52467646 C51.8542136,11.7730578 52.2296642,15.1366127 50.3074332,17.0488791 L18.8991938,48.2943022 C18.56216,48.6295889 18.1335696,48.8577335 17.6671398,48.9509502 Z" id="Stroke-231"></path>
                <polygon id="Stroke-232" points="44.063541 22.1240219 29.7930212 7.92747873 28.6652405 9.06372198 42.9357603 23.2602652"></polygon>
            </g>
        </g>
    </g>
</svg>