<?xml version="1.0" encoding="UTF-8" standalone="no"?>
<svg width="18px" height="11px" viewBox="0 0 18 11" version="1.1" xmlns="http://www.w3.org/2000/svg" xmlns:xlink="http://www.w3.org/1999/xlink">
    <!-- Generator: Sketch 43.2 (39069) - http://www.bohemiancoding.com/sketch -->
    <title></title>
    <desc>Created with Sketch.</desc>
    <defs></defs>
    <g id="UI-1920px" stroke="none" stroke-width="1" fill="none" fill-rule="evenodd" opacity="0.5">
        <g id="Forum---Inner-channel-screen---1920px" transform="translate(-556.000000, -917.000000)" fill-rule="nonzero" fill="#4F617A">
            <g id="BG" transform="translate(0.000000, 70.000000)">
                <g id="Group" transform="translate(435.000000, 41.000000)">
                    <g id="Message" transform="translate(0.000000, 88.000000)">
                        <g id="Reply" transform="translate(30.000000, 711.000000)">
                            <g id="Replies">
                                <path d="M106.55504,7.93550911 C106.778753,7.71179664 107.062065,7.59375 107.377344,7.59375 C107.692623,7.59375 107.975935,7.71179664 108.199647,7.93550911 C108.42336,8.15922158 108.541406,8.44253351 108.541406,8.7578125 C108.541406,9.07309149 108.42336,9.35640342 108.199647,9.58011589 L101.039491,16.7402721 C100.815778,16.9639846 100.532466,17.0820312 100.217188,17.0820312 C99.9019085,17.0820312 99.6185966,16.9639846 99.3953582,16.7407456 L92.0980091,9.46292839 C91.9836292,9.34854843 91.896171,9.21444594 91.8384053,9.06425516 C91.7837942,8.92226617 91.75625,8.77352765 91.75625,8.62109375 C91.75625,8.47909761 91.7845959,8.33736805 91.8384053,8.19746359 C91.896171,8.04727281 91.9836292,7.91317032 92.1170801,7.78069668 C92.3401323,7.57994969 92.6158315,7.4765625 92.9203125,7.4765625 C93.2247935,7.4765625 93.5004927,7.57994969 93.7426159,7.79879036 L100.217187,14.273362 L106.55504,7.93550911 Z" id=""></path>
                            </g>
                        </g>
                    </g>
                </g>
            </g>
        </g>
    </g>
</svg>