<?xml version="1.0" encoding="UTF-8" standalone="no"?>
<svg width="62px" height="62px" viewBox="0 0 62 62" version="1.1" xmlns="http://www.w3.org/2000/svg" xmlns:xlink="http://www.w3.org/1999/xlink">
    <!-- Generator: Sketch 41 (35326) - http://www.bohemiancoding.com/sketch -->
    <title>Play Copy</title>
    <desc>Created with Sketch.</desc>
    <defs></defs>
    <g id="Symbols" stroke="none" stroke-width="1" fill="none" fill-rule="evenodd">
        <g id="nav/video64px/white" transform="translate(-1.000000, -1.000000)" fill="#FFFFFF">
            <g id="Play-Copy" transform="translate(1.000000, 1.000000)">
                <path d="M44.9167282,29.6275862 C46.0277403,30.2443016 46.0277403,31.7559185 44.9167282,32.3726339 L24.8197604,43.5262833 C23.711138,44.1409003 22.25,43.4216192 22.25,42.153344 L22.25,19.8463761 C22.25,18.5782819 23.7116683,17.8587398 24.8200586,18.4741022 L44.9167282,29.6275862 Z M44.188778,30.9391077 L24.0920622,19.785598 C23.9328,19.6971779 23.75,19.7871657 23.75,19.8463761 L23.75,42.153344 C23.75,42.2128734 23.9328528,42.3028872 24.0921594,42.2145681 L44.188778,31.0611124 C44.2704073,31.0158005 44.2704073,30.9844196 44.188778,30.9391077 Z" id="Stroke-159"></path>
                <path d="M31,61.75 C14.0172439,61.75 0.25,47.9827561 0.25,31 C0.25,14.0172439 14.0172439,0.25 31,0.25 C47.9827561,0.25 61.75,14.0172439 61.75,31 C61.75,47.9827561 47.9827561,61.75 31,61.75 Z M31,60.25 C47.1543289,60.25 60.25,47.1543289 60.25,31 C60.25,14.8456711 47.1543289,1.75 31,1.75 C14.8456711,1.75 1.75,14.8456711 1.75,31 C1.75,47.1543289 14.8456711,60.25 31,60.25 Z" id="Oval-2-Copy"></path>
            </g>
        </g>
    </g>
</svg>